  0
SECTION
  2
HEADER
  9
$ACADVER
  1
AC1032
  9
$ACADMAINTVER
 90
      228
  9
$DWGCODEPAGE
  3
ANSI_1252
  9
$REQUIREDVERSIONS
160
                 0
  9
$INSBASE
 10
0.0
 20
0.0
 30
0.0
  9
$EXTMIN
 10
1.000000000000000E+20
 20
1.000000000000000E+20
 30
1.000000000000000E+20
  9
$EXTMAX
 10
-1.000000000000000E+20
 20
-1.000000000000000E+20
 30
-1.000000000000000E+20
  9
$LIMMIN
 10
0.0
 20
0.0
  9
$LIMMAX
 10
12.0
 20
9.0
  9
$ORTHOMODE
 70
     0
  9
$REGENMODE
 70
     1
  9
$FILLMODE
 70
     1
  9
$QTEXTMODE
 70
     0
  9
$MIRRTEXT
 70
     0
  9
$LTSCALE
 40
1.0
  9
$ATTMODE
 70
     1
  9
$TEXTSIZE
 40
0.2
  9
$TRACEWID
 40
0.05
  9
$TEXTSTYLE
  7
Standard
  9
$CLAYER
  8
0
  9
$CELTYPE
  6
ByLayer
  9
$CECOLOR
 62
   256
  9
$CELTSCALE
 40
1.0
  9
$DISPSILH
 70
     0
  9
$DIMSCALE
 40
1.0
  9
$DIMASZ
 40
0.18
  9
$DIMEXO
 40
0.0625
  9
$DIMDLI
 40
0.38
  9
$DIMRND
 40
0.0
  9
$DIMDLE
 40
0.0
  9
$DIMEXE
 40
0.18
  9
$DIMTP
 40
0.0
  9
$DIMTM
 40
0.0
  9
$DIMTXT
 40
0.18
  9
$DIMCEN
 40
0.09
  9
$DIMTSZ
 40
0.0
  9
$DIMTOL
 70
     0
  9
$DIMLIM
 70
     0
  9
$DIMTIH
 70
     1
  9
$DIMTOH
 70
     1
  9
$DIMSE1
 70
     0
  9
$DIMSE2
 70
     0
  9
$DIMTAD
 70
     0
  9
$DIMZIN
 70
     0
  9
$DIMBLK
  1

  9
$DIMASO
 70
     1
  9
$DIMSHO
 70
     1
  9
$DIMPOST
  1

  9
$DIMAPOST
  1

  9
$DIMALT
 70
     0
  9
$DIMALTD
 70
     2
  9
$DIMALTF
 40
25.4
  9
$DIMLFAC
 40
1.0
  9
$DIMTOFL
 70
     0
  9
$DIMTVP
 40
0.0
  9
$DIMTIX
 70
     0
  9
$DIMSOXD
 70
     0
  9
$DIMSAH
 70
     0
  9
$DIMBLK1
  1

  9
$DIMBLK2
  1

  9
$DIMSTYLE
  2
Standard
  9
$DIMCLRD
 70
     0
  9
$DIMCLRE
 70
     0
  9
$DIMCLRT
 70
     0
  9
$DIMTFAC
 40
1.0
  9
$DIMGAP
 40
0.09
  9
$DIMJUST
 70
     0
  9
$DIMSD1
 70
     0
  9
$DIMSD2
 70
     0
  9
$DIMTOLJ
 70
     1
  9
$DIMTZIN
 70
     0
  9
$DIMALTZ
 70
     0
  9
$DIMALTTZ
 70
     0
  9
$DIMUPT
 70
     0
  9
$DIMDEC
 70
     4
  9
$DIMTDEC
 70
     4
  9
$DIMALTU
 70
     2
  9
$DIMALTTD
 70
     2
  9
$DIMTXSTY
  7
Standard
  9
$DIMAUNIT
 70
     0
  9
$DIMADEC
 70
     0
  9
$DIMALTRND
 40
0.0
  9
$DIMAZIN
 70
     0
  9
$DIMDSEP
 70
    46
  9
$DIMATFIT
 70
     3
  9
$DIMFRAC
 70
     0
  9
$DIMLDRBLK
  1

  9
$DIMLUNIT
 70
     2
  9
$DIMLWD
 70
    -2
  9
$DIMLWE
 70
    -2
  9
$DIMTMOVE
 70
     0
  9
$DIMFXL
 40
1.0
  9
$DIMFXLON
 70
     0
  9
$DIMJOGANG
 40
0.7853981633974483
  9
$DIMTFILL
 70
     0
  9
$DIMTFILLCLR
 70
     0
  9
$DIMARCSYM
 70
     0
  9
$DIMLTYPE
  6

  9
$DIMLTEX1
  6

  9
$DIMLTEX2
  6

  9
$DIMTXTDIRECTION
 70
     0
  9
$LUNITS
 70
     2
  9
$LUPREC
 70
     4
  9
$SKETCHINC
 40
0.1
  9
$FILLETRAD
 40
0.0
  9
$AUNITS
 70
     0
  9
$AUPREC
 70
     0
  9
$MENU
  1
.
  9
$ELEVATION
 40
0.0
  9
$PELEVATION
 40
0.0
  9
$THICKNESS
 40
0.0
  9
$LIMCHECK
 70
     0
  9
$CHAMFERA
 40
0.0
  9
$CHAMFERB
 40
0.0
  9
$CHAMFERC
 40
0.0
  9
$CHAMFERD
 40
0.0
  9
$SKPOLY
 70
     0
  9
$TDCREATE
 40
2460129.053449074
  9
$TDUCREATE
 40
2460129.178449074
  9
$TDUPDATE
 40
2460129.053449074
  9
$TDUUPDATE
 40
2460129.178449074
  9
$TDINDWG
 40
0.0000115741
  9
$TDUSRTIMER
 40
0.0000115741
  9
$USRTIMER
 70
     1
  9
$ANGBASE
 50
0.0
  9
$ANGDIR
 70
     0
  9
$PDMODE
 70
     0
  9
$PDSIZE
 40
0.0
  9
$PLINEWID
 40
0.0
  9
$SPLFRAME
 70
     0
  9
$SPLINETYPE
 70
     6
  9
$SPLINESEGS
 70
     8
  9
$HANDSEED
  5
AA
  9
$SURFTAB1
 70
     6
  9
$SURFTAB2
 70
     6
  9
$SURFTYPE
 70
     6
  9
$SURFU
 70
     6
  9
$SURFV
 70
     6
  9
$UCSBASE
  2

  9
$UCSNAME
  2

  9
$UCSORG
 10
0.0
 20
0.0
 30
0.0
  9
$UCSXDIR
 10
1.0
 20
0.0
 30
0.0
  9
$UCSYDIR
 10
0.0
 20
1.0
 30
0.0
  9
$UCSORTHOREF
  2

  9
$UCSORTHOVIEW
 70
     0
  9
$UCSORGTOP
 10
0.0
 20
0.0
 30
0.0
  9
$UCSORGBOTTOM
 10
0.0
 20
0.0
 30
0.0
  9
$UCSORGLEFT
 10
0.0
 20
0.0
 30
0.0
  9
$UCSORGRIGHT
 10
0.0
 20
0.0
 30
0.0
  9
$UCSORGFRONT
 10
0.0
 20
0.0
 30
0.0
  9
$UCSORGBACK
 10
0.0
 20
0.0
 30
0.0
  9
$PUCSBASE
  2

  9
$PUCSNAME
  2

  9
$PUCSORG
 10
0.0
 20
0.0
 30
0.0
  9
$PUCSXDIR
 10
1.0
 20
0.0
 30
0.0
  9
$PUCSYDIR
 10
0.0
 20
1.0
 30
0.0
  9
$PUCSORTHOREF
  2

  9
$PUCSORTHOVIEW
 70
     0
  9
$PUCSORGTOP
 10
0.0
 20
0.0
 30
0.0
  9
$PUCSORGBOTTOM
 10
0.0
 20
0.0
 30
0.0
  9
$PUCSORGLEFT
 10
0.0
 20
0.0
 30
0.0
  9
$PUCSORGRIGHT
 10
0.0
 20
0.0
 30
0.0
  9
$PUCSORGFRONT
 10
0.0
 20
0.0
 30
0.0
  9
$PUCSORGBACK
 10
0.0
 20
0.0
 30
0.0
  9
$USERI1
 70
     0
  9
$USERI2
 70
     0
  9
$USERI3
 70
     0
  9
$USERI4
 70
     0
  9
$USERI5
 70
     0
  9
$USERR1
 40
0.0
  9
$USERR2
 40
0.0
  9
$USERR3
 40
0.0
  9
$USERR4
 40
0.0
  9
$USERR5
 40
0.0
  9
$WORLDVIEW
 70
     1
  9
$SHADEDGE
 70
     3
  9
$SHADEDIF
 70
    70
  9
$TILEMODE
 70
     1
  9
$MAXACTVP
 70
    64
  9
$PINSBASE
 10
0.0
 20
0.0
 30
0.0
  9
$PLIMCHECK
 70
     0
  9
$PEXTMIN
 10
1.000000000000000E+20
 20
1.000000000000000E+20
 30
1.000000000000000E+20
  9
$PEXTMAX
 10
-1.000000000000000E+20
 20
-1.000000000000000E+20
 30
-1.000000000000000E+20
  9
$PLIMMIN
 10
0.0
 20
0.0
  9
$PLIMMAX
 10
12.0
 20
9.0
  9
$UNITMODE
 70
     0
  9
$VISRETAIN
 70
     1
  9
$PLINEGEN
 70
     0
  9
$PSLTSCALE
 70
     1
  9
$TREEDEPTH
 70
  3020
  9
$CMLSTYLE
  2
Standard
  9
$CMLJUST
 70
     0
  9
$CMLSCALE
 40
1.0
  9
$PROXYGRAPHICS
 70
     1
  9
$MEASUREMENT
 70
     0
  9
$CELWEIGHT
370
    -1
  9
$ENDCAPS
280
     0
  9
$JOINSTYLE
280
     0
  9
$LWDISPLAY
290
     1
  9
$INSUNITS
 70
     0
  9
$HYPERLINKBASE
  1

  9
$STYLESHEET
  1

  9
$XEDIT
290
     1
  9
$CEPSNTYPE
380
     0
  9
$PSTYLEMODE
290
     1
  9
$FINGERPRINTGUID
  2
{F63D1F4F-B01D-2344-AD91-8C3D4972CE63}
  9
$VERSIONGUID
  2
{F7163BB6-637B-014D-A823-1B9F6BEBEF50}
  9
$EXTNAMES
290
     1
  9
$PSVPSCALE
 40
0.0
  9
$OLESTARTUP
290
     0
  9
$SORTENTS
280
   127
  9
$INDEXCTL
280
     0
  9
$HIDETEXT
280
     1
  9
$XCLIPFRAME
280
     2
  9
$HALOGAP
280
     0
  9
$OBSCOLOR
 70
   257
  9
$OBSLTYPE
280
     0
  9
$INTERSECTIONDISPLAY
280
     0
  9
$INTERSECTIONCOLOR
 70
   257
  9
$DIMASSOC
280
     2
  9
$PROJECTNAME
  1

  9
$CAMERADISPLAY
290
     0
  9
$LENSLENGTH
 40
50.0
  9
$CAMERAHEIGHT
 40
0.0
  9
$STEPSPERSEC
 40
2.0
  9
$STEPSIZE
 40
6.0
  9
$3DDWFPREC
 40
2.0
  9
$PSOLWIDTH
 40
0.25
  9
$PSOLHEIGHT
 40
4.0
  9
$LOFTANG1
 40
1.570796326794896
  9
$LOFTANG2
 40
1.570796326794896
  9
$LOFTMAG1
 40
0.0
  9
$LOFTMAG2
 40
0.0
  9
$LOFTPARAM
 70
     7
  9
$LOFTNORMALS
280
     1
  9
$LATITUDE
 40
37.795
  9
$LONGITUDE
 40
-122.394
  9
$NORTHDIRECTION
 40
0.0
  9
$TIMEZONE
 70
 -8000
  9
$LIGHTGLYPHDISPLAY
280
     1
  9
$TILEMODELIGHTSYNCH
280
     1
  9
$CMATERIAL
347
11
  9
$SOLIDHIST
280
     0
  9
$SHOWHIST
280
     1
  9
$DWFFRAME
280
     2
  9
$DGNFRAME
280
     0
  9
$REALWORLDSCALE
290
     1
  9
$INTERFERECOLOR
 62
     1
  9
$INTERFEREOBJVS
345
33
  9
$INTERFEREVPVS
346
30
  9
$CSHADOW
280
     0
  9
$SHADOWPLANELOCATION
 40
0.0
  0
ENDSEC
  0
SECTION
  2
CLASSES
  0
CLASS
  1
ACDBDICTIONARYWDFLT
  2
AcDbDictionaryWithDefault
  3
ObjectDBX Classes
 90
        0
 91
        1
280
     0
281
     0
  0
CLASS
  1
MATERIAL
  2
AcDbMaterial
  3
ObjectDBX Classes
 90
     1153
 91
        3
280
     0
281
     0
  0
CLASS
  1
VISUALSTYLE
  2
AcDbVisualStyle
  3
ObjectDBX Classes
 90
     4095
 91
       24
280
     0
281
     0
  0
CLASS
  1
SCALE
  2
AcDbScale
  3
ObjectDBX Classes
 90
     1153
 91
       17
280
     0
281
     0
  0
CLASS
  1
TABLESTYLE
  2
AcDbTableStyle
  3
ObjectDBX Classes
 90
     4095
 91
        1
280
     0
281
     0
  0
CLASS
  1
MLEADERSTYLE
  2
AcDbMLeaderStyle
  3
ACDB_MLEADERSTYLE_CLASS
 90
     4095
 91
        1
280
     0
281
     0
  0
CLASS
  1
ACDBSECTIONVIEWSTYLE
  2
AcDbSectionViewStyle
  3
ObjectDBX Classes
 90
     1025
 91
        1
280
     0
281
     0
  0
CLASS
  1
ACDBDETAILVIEWSTYLE
  2
AcDbDetailViewStyle
  3
ObjectDBX Classes
 90
     1025
 91
        1
280
     0
281
     0
  0
CLASS
  1
DICTIONARYVAR
  2
AcDbDictionaryVar
  3
ObjectDBX Classes
 90
        0
 91
        5
280
     0
281
     0
  0
CLASS
  1
CELLSTYLEMAP
  2
AcDbCellStyleMap
  3
ObjectDBX Classes
 90
     1152
 91
        1
280
     0
281
     0
  0
ENDSEC
  0
SECTION
  2
TABLES
  0
TABLE
  2
VPORT
  5
8
330
0
100
AcDbSymbolTable
 70
     1
  0
VPORT
  5
57
330
8
100
AcDbSymbolTableRecord
100
AcDbViewportTableRecord
  2
*Active
 70
     0
 10
0.0
 20
0.0
 11
1.0
 21
1.0
 12
0.0
 22
0.0
 13
0.0
 23
0.0
 14
1.0
 24
1.0
 15
0.0
 25
0.0
 16
0.0
 26
0.0
 36
1.0
 17
100.0
 27
-100.0
 37
0.0
 40
204.0
 41
1.0
 42
50.0
 43
0.0
 44
0.0
 50
0.0
 51
0.0
 71
     0
 72
   100
 73
     1
 74
     1
 75
     0
 76
     0
 77
     0
 78
     0
281
     0
 65
     1
110
0.0
120
0.0
130
0.0
111
1.0
121
0.0
131
0.0
112
0.0
122
1.0
132
0.0
 79
     0
146
0.0
 60
     3
 61
     5
292
     1
282
     1
141
0.0
142
0.0
 63
   250
421
  3355443
  0
ENDTAB
  0
TABLE
  2
LTYPE
  5
5
330
0
100
AcDbSymbolTable
 70
     1
  0
LTYPE
  5
5B
330
5
100
AcDbSymbolTableRecord
100
AcDbLinetypeTableRecord
  2
ByBlock
 70
     0
  3

 72
    65
 73
     0
 40
0.0
  0
LTYPE
  5
5C
330
5
100
AcDbSymbolTableRecord
100
AcDbLinetypeTableRecord
  2
ByLayer
 70
     0
  3

 72
    65
 73
     0
 40
0.0
  0
LTYPE
  5
5D
330
5
100
AcDbSymbolTableRecord
100
AcDbLinetypeTableRecord
  2
Continuous
 70
     0
  3
Solid line
 72
    65
 73
     0
 40
0.0
  0
ENDTAB
  0
TABLE
  2
LAYER
  5
2
330
0
100
AcDbSymbolTable
 70
     7
  0
LAYER
  5
54
330
2
100
AcDbSymbolTableRecord
100
AcDbLayerTableRecord
  2
0
 70
     0
 62
     7
  6
Continuous
370
    -3
390
F
347
21
348
0
  0
LAYER
  5
78
330
2
100
AcDbSymbolTableRecord
100
AcDbLayerTableRecord
  2
Capa 2
 70
     5
 62
     7
  6
Continuous
370
     0
390
F
347
21
348
0
  0
LAYER
  5
7B
330
2
100
AcDbSymbolTableRecord
100
AcDbLayerTableRecord
  2
twet
 70
     5
 62
     7
  6
Continuous
370
     0
390
F
347
21
348
0
  0
LAYER
  5
84
330
2
100
AcDbSymbolTableRecord
100
AcDbLayerTableRecord
  2
instagrm
 70
     5
 62
     7
  6
Continuous
370
     0
390
F
347
21
348
0
  0
LAYER
  5
90
330
2
100
AcDbSymbolTableRecord
100
AcDbLayerTableRecord
  2
github
 70
     1
 62
     7
  6
Continuous
370
     0
390
F
347
21
348
0
  0
LAYER
  5
93
330
2
100
AcDbSymbolTableRecord
100
AcDbLayerTableRecord
  2
linkedin
 70
     5
 62
     7
  6
Continuous
370
     0
390
F
347
21
348
0
  0
LAYER
  5
9D
330
2
100
AcDbSymbolTableRecord
100
AcDbLayerTableRecord
  2
Capa 6
 70
     0
 62
     7
  6
Continuous
370
     0
390
F
347
21
348
0
  0
ENDTAB
  0
TABLE
  2
STYLE
  5
3
330
0
100
AcDbSymbolTable
 70
     2
  0
STYLE
  5
55
330
3
100
AcDbSymbolTableRecord
100
AcDbTextStyleTableRecord
  2
Standard
 70
     0
 40
0.0
 41
1.0
 50
0.0
 71
     0
 42
0.2
  3
txt
  4

  0
STYLE
  5
5A
330
3
100
AcDbSymbolTableRecord
100
AcDbTextStyleTableRecord
  2
Annotative
 70
     0
 40
0.0
 41
1.0
 50
0.0
 71
     0
 42
0.2
  3
txt
  4

1001
AcadAnnotative
1000
AnnotativeData
1002
{
1070
     1
1070
     1
1002
}
  0
ENDTAB
  0
TABLE
  2
VIEW
  5
6
330
0
100
AcDbSymbolTable
 70
     0
  0
ENDTAB
  0
TABLE
  2
UCS
  5
7
330
0
100
AcDbSymbolTable
 70
     0
  0
ENDTAB
  0
TABLE
  2
APPID
  5
9
330
0
100
AcDbSymbolTable
 70
     2
  0
APPID
  5
56
330
9
100
AcDbSymbolTableRecord
100
AcDbRegAppTableRecord
  2
ACAD
 70
     0
  0
APPID
  5
5E
330
9
100
AcDbSymbolTableRecord
100
AcDbRegAppTableRecord
  2
AcadAnnotative
 70
     0
  0
ENDTAB
  0
TABLE
  2
DIMSTYLE
  5
A
330
0
100
AcDbSymbolTable
 70
     2
100
AcDbDimStyleTable
 71
     0
  0
DIMSTYLE
105
58
330
A
100
AcDbSymbolTableRecord
100
AcDbDimStyleTableRecord
  2
Standard
 70
     0
340
55
  0
DIMSTYLE
105
59
330
A
100
AcDbSymbolTableRecord
100
AcDbDimStyleTableRecord
  2
Annotative
 70
     0
340
55
1001
AcadAnnotative
1000
AnnotativeData
1002
{
1070
     1
1070
     1
1002
}
  0
ENDTAB
  0
TABLE
  2
BLOCK_RECORD
  5
1
330
0
100
AcDbSymbolTable
 70
     4
  0
BLOCK_RECORD
  5
70
330
1
100
AcDbSymbolTableRecord
100
AcDbBlockTableRecord
  2
*Model_Space
340
73
 70
     0
280
     1
281
     0
  0
BLOCK_RECORD
  5
6C
330
1
100
AcDbSymbolTableRecord
100
AcDbBlockTableRecord
  2
*Paper_Space
340
6F
 70
     0
280
     1
281
     0
  0
BLOCK_RECORD
  5
74
330
1
100
AcDbSymbolTableRecord
100
AcDbBlockTableRecord
  2
*Paper_Space0
340
77
 70
     0
280
     1
281
     0
  0
BLOCK_RECORD
  5
7C
330
1
100
AcDbSymbolTableRecord
100
AcDbBlockTableRecord
  2
Block_0
340
0
102
{BLKREFS
331
7D
102
}
 70
     0
280
     1
281
     0
  0
BLOCK_RECORD
  5
85
330
1
100
AcDbSymbolTableRecord
100
AcDbBlockTableRecord
  2
Block_1
340
0
102
{BLKREFS
331
86
102
}
 70
     0
280
     1
281
     0
  0
BLOCK_RECORD
  5
94
330
1
100
AcDbSymbolTableRecord
100
AcDbBlockTableRecord
  2
Block_2
340
0
102
{BLKREFS
331
95
102
}
 70
     0
280
     1
281
     0
  0
ENDTAB
  0
ENDSEC
  0
SECTION
  2
BLOCKS
  0
BLOCK
  5
71
330
70
100
AcDbEntity
  8
0
100
AcDbBlockBegin
  2
*Model_Space
 70
     0
 10
0.0
 20
0.0
 30
0.0
  3
*Model_Space
  1

  0
ENDBLK
  5
72
330
70
100
AcDbEntity
  8
0
100
AcDbBlockEnd
  0
BLOCK
  5
6D
330
6C
100
AcDbEntity
 67
     1
  8
0
100
AcDbBlockBegin
  2
*Paper_Space
 70
     0
 10
0.0
 20
0.0
 30
0.0
  3
*Paper_Space
  1

  0
ENDBLK
  5
6E
330
6C
100
AcDbEntity
 67
     1
  8
0
100
AcDbBlockEnd
  0
BLOCK
  5
75
330
74
100
AcDbEntity
 67
     1
  8
0
100
AcDbBlockBegin
  2
*Paper_Space0
 70
     0
 10
0.0
 20
0.0
 30
0.0
  3
*Paper_Space0
  1

  0
ENDBLK
  5
76
330
74
100
AcDbEntity
 67
     1
  8
0
100
AcDbBlockEnd
  0
BLOCK
  5
7E
330
7C
100
AcDbEntity
  8
0
100
AcDbBlockBegin
  2
Block_0
 70
     0
 10
0.0
 20
0.0
 30
0.0
  3
Block_0
  1

  0
SPLINE
  5
80
330
7C
100
AcDbEntity
  8
twet
100
AcDbSpline
210
0.0
220
0.0
230
1.0
 70
     9
 71
     3
 72
    17
 73
    13
 74
     0
 42
0.0000000001
 43
0.0000000001
 40
0.0
 40
0.0
 40
0.0
 40
0.0
 40
1.0
 40
1.0
 40
1.0
 40
2.0
 40
2.0
 40
2.0
 40
3.0
 40
3.0
 40
3.0
 40
4.0
 40
4.0
 40
4.0
 40
4.0
 10
93.4371616119488
 20
-172.8644502225143
 30
0.0
 10
133.9489485560116
 20
-172.9880019338688
 30
0.0
 10
167.0187536219819
 20
-140.3257592422742
 30
0.0
 10
167.1949542408365
 20
-100.0156366330429
 30
0.0
 10
167.3691869047288
 20
-60.15650294130137
 30
0.0
 10
134.1810604534876
 20
-26.81800570118867
 30
0.0
 10
94.23061359352777
 20
-26.72069290124728
 30
0.0
 10
54.04166279632318
 20
-26.62280040442511
 30
0.0
 10
20.99766616298712
 20
-59.38152448859364
 30
0.0
 10
20.8682960073138
 20
-99.44966941595158
 30
0.0
 10
20.73818596159345
 20
-139.7471149697267
 30
0.0
 10
53.35309976322332
 20
-172.7422104567322
 30
0.0
 10
93.4371616119488
 20
-172.8644502225143
 30
0.0
  0
SPLINE
  5
81
330
7C
100
AcDbEntity
  8
twet
100
AcDbSpline
210
0.0
220
0.0
230
1.0
 70
     9
 71
     3
 72
    17
 73
    13
 74
     0
 42
0.0000000001
 43
0.0000000001
 40
0.0
 40
0.0
 40
0.0
 40
0.0
 40
1.0
 40
1.0
 40
1.0
 40
2.0
 40
2.0
 40
2.0
 40
3.0
 40
3.0
 40
3.0
 40
4.0
 40
4.0
 40
4.0
 40
4.0
 10
14.89972506173308
 20
-99.76145480632659
 30
0.0
 10
14.91409189574097
 20
-56.03527001410839
 30
0.0
 10
50.19443288575985
 20
-20.74044454187697
 30
0.0
 10
93.91465766131204
 20
-20.71407977522176
 30
0.0
 10
137.7292069759423
 20
-20.6876578016363
 30
0.0
 10
173.3610758283103
 20
-56.40076126938311
 30
0.0
 10
173.1763168936813
 20
-100.1564572093493
 30
0.0
 10
172.9912986161544
 20
-143.9756375852703
 30
0.0
 10
137.502892155102
 20
-178.9237166059465
 30
0.0
 10
93.26967186351703
 20
-178.8464796242733
 30
0.0
 10
49.90419003952502
 20
-178.7707529055223
 30
0.0
 10
14.88536966932133
 20
-143.43241584313
 30
0.0
 10
14.89972506173308
 20
-99.76145480632659
 30
0.0
  0
SPLINE
  5
82
330
7C
100
AcDbEntity
  8
twet
100
AcDbSpline
210
0.0
220
0.0
230
1.0
 70
     9
 71
     3
 72
    68
 73
    64
 74
     0
 42
0.0000000001
 43
0.0000000001
 40
0.0
 40
0.0
 40
0.0
 40
0.0
 40
1.0
 40
1.0
 40
1.0
 40
2.0
 40
2.0
 40
2.0
 40
3.0
 40
3.0
 40
3.0
 40
4.0
 40
4.0
 40
4.0
 40
5.0
 40
5.0
 40
5.0
 40
6.0
 40
6.0
 40
6.0
 40
7.0
 40
7.0
 40
7.0
 40
8.0
 40
8.0
 40
8.0
 40
9.0
 40
9.0
 40
9.0
 40
10.0
 40
10.0
 40
10.0
 40
11.0
 40
11.0
 40
11.0
 40
12.0
 40
12.0
 40
12.0
 40
13.0
 40
13.0
 40
13.0
 40
14.0
 40
14.0
 40
14.0
 40
15.0
 40
15.0
 40
15.0
 40
16.0
 40
16.0
 40
16.0
 40
17.0
 40
17.0
 40
17.0
 40
18.0
 40
18.0
 40
18.0
 40
19.0
 40
19.0
 40
19.0
 40
20.0
 40
20.0
 40
20.0
 40
21.0
 40
21.0
 40
21.0
 40
21.0
 10
128.8554997230058
 20
-76.33489704197927
 30
0.0
 10
130.2709932832695
 20
-76.05129559860142
 30
0.0
 10
131.6864715880619
 20
-75.76769415522267
 30
0.0
 10
133.4174939275253
 20
-75.42087524155795
 30
0.0
 10
133.1455195004309
 20
-76.2770265126519
 30
0.0
 10
133.1454432231075
 20
-76.90253470139578
 30
0.0
 10
132.8556504130829
 20
-77.09753405321499
 30
0.0
 10
126.6682627076297
 20
-81.26114587337452
 30
0.0
 10
126.4896059589373
 20
-87.81316986002094
 30
0.0
 10
125.353104339596
 20
-94.3178951578111
 30
0.0
 10
119.9216401722224
 20
-125.4048802262114
 30
0.0
 10
85.94845224506661
 20
-142.1769907183188
 30
0.0
 10
57.75541501730277
 20
-127.9396353445481
 30
0.0
 10
56.76692954553164
 20
-127.4404400549283
 30
0.0
 10
55.80762777799009
 20
-126.8834581394767
 30
0.0
 10
53.77981799787903
 20
-125.7786931827504
 30
0.0
 10
62.59715630824667
 20
-125.4061006406955
 30
0.0
 10
69.97797902781076
 20
-124.1509806195063
 30
0.0
 10
76.84877341925039
 20
-118.9690549536517
 30
0.0
 10
70.05562934382488
 20
-117.0626302325545
 30
0.0
 10
64.6531124209805
 20
-113.982960046982
 30
0.0
 10
62.50067312089322
 20
-107.0257126860088
 30
0.0
 10
64.25502106608746
 20
-106.9041288930093
 30
0.0
 10
65.86608968554447
 20
-106.7924762228776
 30
0.0
 10
68.46067049523572
 20
-106.6126481486171
 30
0.0
 10
60.93099257753692
 20
-103.2289574598253
 30
0.0
 10
56.96447255969087
 20
-98.27338817044619
 30
0.0
 10
56.56969164066777
 20
-90.81438264943427
 30
0.0
 10
58.79171874360418
 20
-90.07651242463998
 30
0.0
 10
60.25278800506112
 20
-92.26505120896126
 30
0.0
 10
62.33370968599683
 20
-91.31914608013813
 30
0.0
 10
56.80322992410856
 20
-85.10097410326034
 30
0.0
 10
54.73661786918729
 20
-78.29663704957602
 30
0.0
 10
58.88971222197596
 20
-69.96541655182046
 30
0.0
 10
63.86808145599116
 20
-74.8823292124107
 30
0.0
 10
68.67092893933568
 20
-79.41442230333177
 30
0.0
 10
74.7369365388231
 20
-82.29259442995589
 30
0.0
 10
79.42240084798959
 20
-84.51573959249889
 30
0.0
 10
84.25350145221001
 20
-86.14723544064601
 30
0.0
 10
89.41939848771927
 20
-86.78204166224167
 30
0.0
 10
91.64398850874841
 20
-87.05541450672354
 30
0.0
 10
93.11524079298306
 20
-87.12854021710427
 30
0.0
 10
92.97053508128284
 20
-83.96754466133462
 30
0.0
 10
92.65213064696126
 20
-77.0126389706511
 30
0.0
 10
95.81565638997473
 20
-71.76082169279926
 30
0.0
 10
102.0257976212306
 20
-68.60547818161013
 30
0.0
 10
108.2504467995459
 20
-65.44275116279095
 30
0.0
 10
114.3242270583687
 20
-66.12546628048585
 30
0.0
 10
119.8202523529253
 20
-70.34735289227137
 30
0.0
 10
121.6905418308706
 20
-71.78405533354362
 30
0.0
 10
123.2619004753614
 20
-71.89870564675311
 30
0.0
 10
125.2789627804923
 20
-71.00655214837207
 30
0.0
 10
127.219656228659
 20
-70.14818124843441
 30
0.0
 10
129.2656581505835
 20
-69.52785219365797
 30
0.0
 10
131.4221096379224
 20
-68.74611569574426
 30
0.0
 10
131.9272638450311
 20
-71.89202387745081
 30
0.0
 10
129.117008901223
 20
-73.2503833364226
 30
0.0
 10
128.1370893729581
 20
-75.48395541521495
 30
0.0
 10
127.850545976944
 20
-75.74542159088469
 30
0.0
 10
127.2960403410907
 20
-76.21095632350898
 30
0.0
 10
127.3168945615216
 20
-76.23833937349991
 30
0.0
 10
127.7687004081017
 20
-76.83161336467765
 30
0.0
 10
128.3165546612872
 20
-76.61961211357447
 30
0.0
 10
128.8554997230058
 20
-76.33489704197927
 30
0.0
  0
SPLINE
  5
83
330
7C
100
AcDbEntity
  8
twet
100
AcDbSpline
210
0.0
220
0.0
230
1.0
 70
     9
 71
     3
 72
    14
 73
    10
 74
     0
 42
0.0000000001
 43
0.0000000001
 40
0.0
 40
0.0
 40
0.0
 40
0.0
 40
1.0
 40
1.0
 40
1.0
 40
2.0
 40
2.0
 40
2.0
 40
3.0
 40
3.0
 40
3.0
 40
3.0
 10
128.8554997230058
 20
-76.33490466957027
 30
0.0
 10
128.3165546612872
 20
-76.61961211357447
 30
0.0
 10
127.7687004081017
 20
-76.83161336467765
 30
0.0
 10
127.3168945615216
 20
-76.23833937349991
 30
0.0
 10
127.2960403410907
 20
-76.21095632350898
 30
0.0
 10
127.850545976944
 20
-75.74542159088469
 30
0.0
 10
128.1370893729581
 20
-75.48395541521495
 30
0.0
 10
128.3765696599512
 20
-75.76760262413609
 30
0.0
 10
128.6160346914803
 20
-76.05124983305813
 30
0.0
 10
128.8554997230058
 20
-76.33490466957027
 30
0.0
  0
ENDBLK
  5
7F
330
7C
100
AcDbEntity
  8
0
100
AcDbBlockEnd
  0
BLOCK
  5
87
330
85
100
AcDbEntity
  8
0
100
AcDbBlockBegin
  2
Block_1
 70
     0
 10
0.0
 20
0.0
 30
0.0
  3
Block_1
  1

  0
SPLINE
  5
89
330
85
100
AcDbEntity
  8
instagrm
100
AcDbSpline
210
0.0
220
0.0
230
1.0
 70
     9
 71
     3
 72
    17
 73
    13
 74
     0
 42
0.0000000001
 43
0.0000000001
 40
0.0
 40
0.0
 40
0.0
 40
0.0
 40
1.0
 40
1.0
 40
1.0
 40
2.0
 40
2.0
 40
2.0
 40
3.0
 40
3.0
 40
3.0
 40
4.0
 40
4.0
 40
4.0
 40
4.0
 10
93.68713003101857
 20
-172.8834753401861
 30
0.0
 10
134.072311872409
 20
-172.9687518022765
 30
0.0
 10
167.0407138636146
 20
-140.4312049606142
 30
0.0
 10
167.1648323255176
 20
-100.3660653039233
 30
0.0
 10
167.2902322464688
 20
-59.85843386559008
 30
0.0
 10
134.5127676531483
 20
-26.79044530971623
 30
0.0
 10
94.18580066557387
 20
-26.74015279157811
 30
0.0
 10
53.99320381227244
 20
-26.69002808043024
 30
0.0
 10
21.14733371462626
 20
-59.39233469126702
 30
0.0
 10
21.01784532910006
 20
-99.5882188771784
 30
0.0
 10
20.88799081241723
 20
-139.887388266412
 30
0.0
 10
53.51820965914249
 20
-172.798687043889
 30
0.0
 10
93.68713003101857
 20
-172.8834753401861
 30
0.0
  0
SPLINE
  5
8A
330
85
100
AcDbEntity
  8
instagrm
100
AcDbSpline
210
0.0
220
0.0
230
1.0
 70
     9
 71
     3
 72
    17
 73
    13
 74
     0
 42
0.0000000001
 43
0.0000000001
 40
0.0
 40
0.0
 40
0.0
 40
0.0
 40
1.0
 40
1.0
 40
1.0
 40
2.0
 40
2.0
 40
2.0
 40
3.0
 40
3.0
 40
3.0
 40
4.0
 40
4.0
 40
4.0
 40
4.0
 10
93.75083685217305
 20
-178.865153872779
 30
0.0
 10
50.02434208057366
 20
-178.8508292577698
 30
0.0
 10
15.01225699809493
 20
-143.6258381906082
 30
0.0
 10
15.03715391670721
 20
-99.67290038720694
 30
0.0
 10
15.06192879160062
 20
-55.96097918927353
 30
0.0
 10
50.34891735042129
 20
-20.73533977691659
 30
0.0
 10
94.1139169152675
 20
-20.73357398970984
 30
0.0
 10
137.9910136357248
 20
-20.73180438870713
 30
0.0
 10
173.2341884995367
 20
-56.20201867751257
 30
0.0
 10
173.1706647439605
 20
-100.2996137352538
 30
0.0
 10
173.1079952944164
 20
-143.8584644464936
 30
0.0
 10
137.7061025744515
 20
-178.8795700188748
 30
0.0
 10
93.75083685217305
 20
-178.865153872779
 30
0.0
  0
SPLINE
  5
8B
330
85
100
AcDbEntity
  8
instagrm
100
AcDbSpline
210
0.0
220
0.0
230
1.0
 70
     9
 71
     3
 72
    32
 73
    28
 74
     0
 42
0.0000000001
 43
0.0000000001
 40
0.0
 40
0.0
 40
0.0
 40
0.0
 40
1.0
 40
1.0
 40
1.0
 40
2.0
 40
2.0
 40
2.0
 40
3.0
 40
3.0
 40
3.0
 40
4.0
 40
4.0
 40
4.0
 40
5.0
 40
5.0
 40
5.0
 40
6.0
 40
6.0
 40
6.0
 40
7.0
 40
7.0
 40
7.0
 40
8.0
 40
8.0
 40
8.0
 40
9.0
 40
9.0
 40
9.0
 40
9.0
 10
93.75004356800218
 20
-133.7109315821253
 30
0.0
 10
99.24054638428879
 20
-133.7109315821253
 30
0.0
 10
104.733856206105
 20
-133.8241250255451
 30
0.0
 10
110.2209417982667
 20
-133.6876064102944
 30
0.0
 10
122.0004184603494
 20
-133.3945696374358
 30
0.0
 10
127.6760005760261
 20
-127.9296451078553
 30
0.0
 10
127.9570672601621
 20
-116.1410208864563
 30
0.0
 10
128.2187900148856
 20
-105.1659402154691
 30
0.0
 10
128.2500942287297
 20
-94.1731787896424
 30
0.0
 10
127.9468155877912
 20
-83.20025672677457
 30
0.0
 10
127.6415842473579
 20
-72.15724473455612
 30
0.0
 10
122.3000968115884
 20
-66.47350751553222
 30
0.0
 10
111.3386181740025
 20
-66.02402123337651
 30
0.0
 10
99.87712642095994
 20
-65.55402436029362
 30
0.0
 10
88.36663411486279
 20
-65.55474898139346
 30
0.0
 10
76.9048982743816
 20
-66.02167193549394
 30
0.0
 10
65.65020960265337
 20
-66.48015877447142
 30
0.0
 10
60.38091102648559
 20
-72.31454090640091
 30
0.0
 10
60.22597652561216
 20
-83.58535851729357
 30
0.0
 10
60.07506946745616
 20
-94.56373430738768
 30
0.0
 10
60.04730452145577
 20
-105.5483570941232
 30
0.0
 10
60.23628921984254
 20
-116.5255734904567
 30
0.0
 10
60.42734866144655
 20
-127.6222226992613
 30
0.0
 10
66.23748397697363
 20
-133.3801687465202
 30
0.0
 10
77.27938942517266
 20
-133.6819619933048
 30
0.0
 10
82.76580377688242
 20
-133.8319051678809
 30
0.0
 10
88.25966279543445
 20
-133.708033097726
 30
0.0
 10
93.75004356800218
 20
-133.7109315821253
 30
0.0
  0
SPLINE
  5
8C
330
85
100
AcDbEntity
  8
instagrm
100
AcDbSpline
210
0.0
220
0.0
230
1.0
 70
     9
 71
     3
 72
    35
 73
    31
 74
     0
 42
0.0000000001
 43
0.0000000001
 40
0.0
 40
0.0
 40
0.0
 40
0.0
 40
1.0
 40
1.0
 40
1.0
 40
2.0
 40
2.0
 40
2.0
 40
3.0
 40
3.0
 40
3.0
 40
4.0
 40
4.0
 40
4.0
 40
5.0
 40
5.0
 40
5.0
 40
6.0
 40
6.0
 40
6.0
 40
7.0
 40
7.0
 40
7.0
 40
8.0
 40
8.0
 40
8.0
 40
9.0
 40
9.0
 40
9.0
 40
10.0
 40
10.0
 40
10.0
 40
10.0
 10
94.29527388123551
 20
-141.2236048300838
 30
0.0
 10
87.48456313805309
 20
-141.2236048300838
 30
0.0
 10
80.60312805989179
 20
-141.8498452675194
 30
0.0
 10
73.87827507280508
 20
-141.0900152095982
 30
0.0
 10
60.86389904318912
 20
-139.6195530526529
 30
0.0
 10
54.05935150780078
 20
-132.9348700115642
 30
0.0
 10
52.82127900358045
 20
-119.8822930191454
 30
0.0
 10
51.51907252519141
 20
-106.1530419607297
 30
0.0
 10
51.40105624922125
 20
-92.29162764125431
 30
0.0
 10
52.98567189265213
 20
-78.56164433414687
 30
0.0
 10
54.34737468390176
 20
-66.76421024569117
 30
0.0
 10
61.91158334625743
 20
-59.69749170547402
 30
0.0
 10
73.67983198622005
 20
-58.63206223309498
 30
0.0
 10
87.27544122608287
 20
-57.40120557737009
 30
0.0
 10
100.9163897074386
 20
-57.3958052432772
 30
0.0
 10
114.5095580729248
 20
-58.63612773884597
 30
0.0
 10
126.6274619669275
 20
-59.74183851679754
 30
0.0
 10
134.1491383933207
 20
-67.41146469502655
 30
0.0
 10
135.300864966568
 20
-79.58299396087113
 30
0.0
 10
136.5245973338424
 20
-92.51490247115544
 30
0.0
 10
136.4020654402811
 20
-105.4923095589329
 30
0.0
 10
135.4881410528942
 20
-118.4258351184071
 30
0.0
 10
134.4682216958281
 20
-132.8589754858221
 30
0.0
 10
126.2547404500583
 20
-140.7241959679304
 30
0.0
 10
111.7535057956811
 20
-141.474171178892
 30
0.0
 10
105.9489844912095
 20
-141.7743778868462
 30
0.0
 10
100.11584393471
 20
-141.5235521999639
 30
0.0
 10
94.29576205611102
 20
-141.5235521999639
 30
0.0
 10
94.2955789905327
 20
-141.423569743336
 30
0.0
 10
94.29545694681383
 20
-141.3235872867117
 30
0.0
 10
94.29527388123551
 20
-141.2236048300838
 30
0.0
  0
SPLINE
  5
8D
330
85
100
AcDbEntity
  8
instagrm
100
AcDbSpline
210
0.0
220
0.0
230
1.0
 70
     9
 71
     3
 72
    17
 73
    13
 74
     0
 42
0.0000000001
 43
0.0000000001
 40
0.0
 40
0.0
 40
0.0
 40
0.0
 40
1.0
 40
1.0
 40
1.0
 40
2.0
 40
2.0
 40
2.0
 40
3.0
 40
3.0
 40
3.0
 40
4.0
 40
4.0
 40
4.0
 40
4.0
 10
94.01194938830395
 20
-113.7069957286185
 30
0.0
 10
101.4616810425323
 20
-113.7252256699794
 30
0.0
 10
108.1198371373539
 20
-107.0341201976662
 30
0.0
 10
107.9703335819613
 20
-99.6797804738626
 30
0.0
 10
107.8235760102434
 20
-92.46452223572578
 30
0.0
 10
101.3214528097596
 20
-86.03696527129613
 30
0.0
 10
94.11971399190496
 20
-85.98804190565624
 30
0.0
 10
86.94305515823998
 20
-85.93927871941833
 30
0.0
 10
80.39748439390406
 20
-92.33371668578092
 30
0.0
 10
80.21887341160526
 20
-99.56782270010899
 30
0.0
 10
80.03580783357483
 20
-106.9823136028062
 30
0.0
 10
86.57814443936604
 20
-113.6888115528018
 30
0.0
 10
94.01194938830395
 20
-113.7069957286185
 30
0.0
  0
SPLINE
  5
8E
330
85
100
AcDbEntity
  8
instagrm
100
AcDbSpline
210
0.0
220
0.0
230
1.0
 70
     9
 71
     3
 72
    17
 73
    13
 74
     0
 42
0.0000000001
 43
0.0000000001
 40
0.0
 40
0.0
 40
0.0
 40
0.0
 40
1.0
 40
1.0
 40
1.0
 40
2.0
 40
2.0
 40
2.0
 40
3.0
 40
3.0
 40
3.0
 40
4.0
 40
4.0
 40
4.0
 40
4.0
 10
93.96386416314181
 20
-78.27448843358343
 30
0.0
 10
105.858122942649
 20
-78.19561914753558
 30
0.0
 10
115.564076824241
 20
-87.82100530238949
 30
0.0
 10
115.6481039245554
 20
-99.77871032299573
 30
0.0
 10
115.7312156969819
 20
-111.6012620670553
 30
0.0
 10
106.0233091158916
 20
-121.4281920464
 30
0.0
 10
94.15992739721241
 20
-121.5303559939166
 30
0.0
 10
82.46960367162955
 20
-121.6310401888713
 30
0.0
 10
72.42839569480475
 20
-111.6947763269163
 30
0.0
 10
72.37628302692519
 20
-99.97440378555166
 30
0.0
 10
72.32392627160971
 20
-88.17476532343334
 30
0.0
 10
82.09462434596479
 20
-78.35318991263921
 30
0.0
 10
93.96386416314181
 20
-78.27448843358343
 30
0.0
  0
SPLINE
  5
8F
330
85
100
AcDbEntity
  8
instagrm
100
AcDbSpline
210
0.0
220
0.0
230
1.0
 70
     9
 71
     3
 72
    17
 73
    13
 74
     0
 42
0.0000000001
 43
0.0000000001
 40
0.0
 40
0.0
 40
0.0
 40
0.0
 40
1.0
 40
1.0
 40
1.0
 40
2.0
 40
2.0
 40
2.0
 40
3.0
 40
3.0
 40
3.0
 40
4.0
 40
4.0
 40
4.0
 40
4.0
 10
121.3567598879963
 20
-77.63998731560878
 30
0.0
 10
121.2288580708118
 20
-80.74064100271971
 30
0.0
 10
119.5883464042235
 20
-82.63563196561609
 30
0.0
 10
116.471593916398
 20
-82.65865203382691
 30
0.0
 10
113.1315624452327
 20
-82.68331966159076
 30
0.0
 10
111.1639736125616
 20
-80.64990318581294
 30
0.0
 10
111.2616085875124
 20
-77.35810208009843
 30
0.0
 10
111.3517988956228
 20
-74.31470108748181
 30
0.0
 10
113.2273667644003
 20
-72.52827362055359
 30
0.0
 10
116.427597155809
 20
-72.59413023716206
 30
0.0
 10
119.6403980502436
 20
-72.66023856425817
 30
0.0
 10
121.1989573597348
 20
-74.4493280602801
 30
0.0
 10
121.3567598879963
 20
-77.63998731560878
 30
0.0
  0
ENDBLK
  5
88
330
85
100
AcDbEntity
  8
0
100
AcDbBlockEnd
  0
BLOCK
  5
96
330
94
100
AcDbEntity
  8
0
100
AcDbBlockBegin
  2
Block_2
 70
     0
 10
0.0
 20
0.0
 30
0.0
  3
Block_2
  1

  0
SPLINE
  5
98
330
94
100
AcDbEntity
  8
linkedin
100
AcDbSpline
210
0.0
220
0.0
230
1.0
 70
     9
 71
     3
 72
    17
 73
    13
 74
     0
 42
0.0000000001
 43
0.0000000001
 40
0.0
 40
0.0
 40
0.0
 40
0.0
 40
1.0
 40
1.0
 40
1.0
 40
2.0
 40
2.0
 40
2.0
 40
3.0
 40
3.0
 40
3.0
 40
4.0
 40
4.0
 40
4.0
 40
4.0
 10
99.54998524460552
 20
-27.12181263187267
 30
0.0
 10
59.44803636336018
 20
-27.11610719415785
 30
0.0
 10
26.53495068764732
 20
-59.7192665695311
 30
0.0
 10
26.50306676614036
 20
-99.48088914397795
 30
0.0
 10
26.47020649488422
 20
-140.4617057882351
 30
0.0
 10
59.10402563131083
 20
-173.3205419980659
 30
0.0
 10
99.7826310833525
 20
-173.265775898084
 30
0.0
 10
139.6717357192101
 20
-173.2120776607753
 30
0.0
 10
173.1084194590185
 20
-139.6830813472552
 30
0.0
 10
172.8180164304031
 20
-100.0288247370636
 30
0.0
 10
172.5232808497749
 20
-59.78645038689137
 30
0.0
 10
139.7026432909661
 20
-27.12754857994878
 30
0.0
 10
99.54998524460552
 20
-27.12181263187267
 30
0.0
  0
SPLINE
  5
99
330
94
100
AcDbEntity
  8
linkedin
100
AcDbSpline
210
0.0
220
0.0
230
1.0
 70
     9
 71
     3
 72
    17
 73
    13
 74
     0
 42
0.0000000001
 43
0.0000000001
 40
0.0
 40
0.0
 40
0.0
 40
0.0
 40
1.0
 40
1.0
 40
1.0
 40
2.0
 40
2.0
 40
2.0
 40
3.0
 40
3.0
 40
3.0
 40
4.0
 40
4.0
 40
4.0
 40
4.0
 10
20.53393899609273
 20
-98.22017047134067
 30
0.0
 10
21.14571364694075
 20
-54.91159626046647
 30
0.0
 10
57.83257417003096
 20
-20.1768609468254
 30
0.0
 10
101.3094590259861
 20
-21.01226517168743
 30
0.0
 10
143.6265319123267
 20
-21.82533581148527
 30
0.0
 10
179.2979581850122
 20
-57.7817365342662
 30
0.0
 10
178.8032539713167
 20
-100.2820302321915
 30
0.0
 10
178.2891448063492
 20
-144.4526137036846
 30
0.0
 10
142.9529726288965
 20
-179.4345134607574
 30
0.0
 10
99.0121080654235
 20
-179.2732356866581
 30
0.0
 10
54.79945214043346
 20
-179.1110120913326
 30
0.0
 10
20.32289489555387
 20
-143.5032837867147
 30
0.0
 10
20.53393899609273
 20
-98.22017047134067
 30
0.0
  0
SPLINE
  5
9A
330
94
100
AcDbEntity
  8
linkedin
100
AcDbSpline
210
0.0
220
0.0
230
1.0
 70
     9
 71
     3
 72
    53
 73
    49
 74
     0
 42
0.0000000001
 43
0.0000000001
 40
0.0
 40
0.0
 40
0.0
 40
0.0
 40
1.0
 40
1.0
 40
1.0
 40
2.0
 40
2.0
 40
2.0
 40
3.0
 40
3.0
 40
3.0
 40
4.0
 40
4.0
 40
4.0
 40
5.0
 40
5.0
 40
5.0
 40
6.0
 40
6.0
 40
6.0
 40
7.0
 40
7.0
 40
7.0
 40
8.0
 40
8.0
 40
8.0
 40
9.0
 40
9.0
 40
9.0
 40
10.0
 40
10.0
 40
10.0
 40
11.0
 40
11.0
 40
11.0
 40
12.0
 40
12.0
 40
12.0
 40
13.0
 40
13.0
 40
13.0
 40
14.0
 40
14.0
 40
14.0
 40
15.0
 40
15.0
 40
15.0
 40
16.0
 40
16.0
 40
16.0
 40
16.0
 10
106.0357850977125
 20
-88.64623241459048
 30
0.0
 10
109.8547771428639
 20
-84.80580160505269
 30
0.0
 10
113.6838988166673
 20
-82.38330936409147
 30
0.0
 10
118.4685617859286
 20
-81.63156455212902
 30
0.0
 10
129.8234788616282
 20
-79.84756265898795
 30
0.0
 10
138.8764683373156
 20
-86.5776603740751
 30
0.0
 10
139.6767090007452
 20
-98.54806533290867
 30
0.0
 10
140.4185212338525
 20
-109.6447755624358
 30
0.0
 10
139.9146332303244
 20
-120.8234366245833
 30
0.0
 10
140.0204451344252
 20
-131.9654242314791
 30
0.0
 10
140.0362803069256
 20
-133.6323883755758
 30
0.0
 10
139.5703478999094
 20
-134.512063135855
 30
0.0
 10
137.7802411451412
 20
-134.2796962180436
 30
0.0
 10
137.6167330730277
 20
-134.2584610060185
 30
0.0
 10
137.4472753696318
 20
-134.2690786120311
 30
0.0
 10
137.2816925543047
 20
-134.280672549632
 30
0.0
 10
123.9973558189522
 20
-135.2128861534584
 30
0.0
 10
123.9981491031249
 20
-135.2130387052711
 30
0.0
 10
123.9969591768677
 20
-122.07399534664
 30
0.0
 10
123.99650151292
 20
-116.7513101252025
 30
0.0
 10
124.1211386606301
 20
-111.4245670256059
 30
0.0
 10
123.955555845303
 20
-106.1069465242781
 30
0.0
 10
123.7544888187658
 20
-99.6498860396905
 30
0.0
 10
120.9068732415726
 20
-96.28135900086727
 30
0.0
 10
115.8657353974922
 20
-96.11330792638
 30
0.0
 10
110.2123652386181
 20
-95.92484541964314
 30
0.0
 10
106.4444484897358
 20
-99.34282975544192
 30
0.0
 10
106.1768676365173
 20
-105.7899438619824
 30
0.0
 10
105.8322466858735
 20
-114.0926676815306
 30
0.0
 10
105.9231387453656
 20
-122.420257446196
 30
0.0
 10
106.0694996750026
 20
-130.7328361127038
 30
0.0
 10
106.1183171624761
 20
-133.5068077251417
 30
0.0
 10
105.3858412738482
 20
-134.3244854296172
 30
0.0
 10
102.5259297919983
 20
-134.3582604004696
 30
0.0
 10
90.84582722785581
 20
-134.4961062164711
 30
0.0
 10
90.84704766504273
 20
-134.6057299475233
 30
0.0
 10
90.84713919783188
 20
-122.9411608584541
 30
0.0
 10
90.84723073061923
 20
-110.9650199515454
 30
0.0
 10
90.93678030920727
 20
-98.98775016123728
 30
0.0
 10
90.78361544225391
 20
-87.01356191750255
 30
0.0
 10
90.7463005752661
 20
-84.0955508855559
 30
0.0
 10
91.28664913975171
 20
-82.65924507899034
 30
0.0
 10
94.55055584138518
 20
-83.07931174448459
 30
0.0
 10
96.67768632530988
 20
-83.35311173403624
 30
0.0
 10
98.88304683291153
 20
-83.28925354614511
 30
0.0
 10
101.027965188834
 20
-83.09557376748761
 30
0.0
 10
104.8414652666433
 20
-82.75117280001996
 30
0.0
 10
107.3986167933617
 20
-83.45867758692747
 30
0.0
 10
106.0357850977125
 20
-88.64623241459048
 30
0.0
  0
SPLINE
  5
9B
330
94
100
AcDbEntity
  8
linkedin
100
AcDbSpline
210
0.0
220
0.0
230
1.0
 70
     9
 71
     3
 72
    26
 73
    22
 74
     0
 42
0.0000000001
 43
0.0000000001
 40
0.0
 40
0.0
 40
0.0
 40
0.0
 40
1.0
 40
1.0
 40
1.0
 40
2.0
 40
2.0
 40
2.0
 40
3.0
 40
3.0
 40
3.0
 40
4.0
 40
4.0
 40
4.0
 40
5.0
 40
5.0
 40
5.0
 40
6.0
 40
6.0
 40
6.0
 40
7.0
 40
7.0
 40
7.0
 40
7.0
 10
81.01096466840045
 20
-108.805038866154
 30
0.0
 10
81.01078160282213
 20
-116.2823048388891
 30
0.0
 10
80.92510691230291
 20
-123.7610963297266
 30
0.0
 10
81.06109412585011
 20
-131.2358909631293
 30
0.0
 10
81.10387044925028
 20
-133.5864092598785
 30
0.0
 10
80.44928896407236
 20
-134.2503147393345
 30
0.0
 10
78.0341353040485
 20
-134.3508768928404
 30
0.0
 10
65.0069751949004
 20
-134.8932901103853
 30
0.0
 10
65.01030088623429
 20
-134.9725560311399
 30
0.0
 10
65.01023986437485
 20
-121.8368383019788
 30
0.0
 10
65.01020935344513
 20
-110.2055560179687
 30
0.0
 10
65.11669249799979
 20
-98.57262617440483
 30
0.0
 10
64.93716618781127
 20
-86.94412033334629
 30
0.0
 10
64.89066753099087
 20
-83.93238146900603
 30
0.0
 10
65.58964241884041
 20
-83.04657412594314
 30
0.0
 10
68.7368448144798
 20
-83.03955674265854
 30
0.0
 10
81.0114223323444
 20
-83.01221945821088
 30
0.0
 10
81.01111722304905
 20
-82.88175714983935
 30
0.0
 10
81.01111722304905
 20
-95.34600282974224
 30
0.0
 10
81.01111722304905
 20
-99.83233800509243
 30
0.0
 10
81.01111722304905
 20
-104.3187036908057
 30
0.0
 10
81.01096466840045
 20
-108.805038866154
 30
0.0
  0
SPLINE
  5
9C
330
94
100
AcDbEntity
  8
linkedin
100
AcDbSpline
210
0.0
220
0.0
230
1.0
 70
     9
 71
     3
 72
    17
 73
    13
 74
     0
 42
0.0000000001
 43
0.0000000001
 40
0.0
 40
0.0
 40
0.0
 40
0.0
 40
1.0
 40
1.0
 40
1.0
 40
2.0
 40
2.0
 40
2.0
 40
3.0
 40
3.0
 40
3.0
 40
4.0
 40
4.0
 40
4.0
 40
4.0
 10
82.157901025691
 20
-67.02863401958802
 30
0.0
 10
82.18606261377772
 20
-72.56687494931248
 30
0.0
 10
78.37814603609785
 20
-76.43439896040217
 30
0.0
 10
72.88303606942918
 20
-76.44867780986806
 30
0.0
 10
67.5016403376494
 20
-76.4626820660751
 30
0.0
 10
63.36371754463925
 20
-72.43458201921566
 30
0.0
 10
63.34159712062774
 20
-67.16049980461594
 30
0.0
 10
63.32002589334933
 20
-62.0143170279698
 30
0.0
 10
67.70090721933502
 20
-57.5112316638224
 30
0.0
 10
72.74677425751633
 20
-57.49295595692093
 30
0.0
 10
77.90391465620905
 20
-57.47428361531092
 30
0.0
 10
82.13111242943796
 20
-61.75741977902635
 30
0.0
 10
82.157901025691
 20
-67.02863401958802
 30
0.0
  0
ENDBLK
  5
97
330
94
100
AcDbEntity
  8
0
100
AcDbBlockEnd
  0
ENDSEC
  0
SECTION
  2
ENTITIES
  0
SPLINE
  5
79
330
70
100
AcDbEntity
  8
Capa 2
100
AcDbSpline
210
0.0
220
0.0
230
1.0
 70
     9
 71
     3
 72
    29
 73
    25
 74
     0
 42
0.0000000001
 43
0.0000000001
 40
0.0
 40
0.0
 40
0.0
 40
0.0
 40
1.0
 40
1.0
 40
1.0
 40
2.0
 40
2.0
 40
2.0
 40
3.0
 40
3.0
 40
3.0
 40
4.0
 40
4.0
 40
4.0
 40
5.0
 40
5.0
 40
5.0
 40
6.0
 40
6.0
 40
6.0
 40
7.0
 40
7.0
 40
7.0
 40
8.0
 40
8.0
 40
8.0
 40
8.0
 10
192.1090047393372
 20
-199.0
 30
0.0
 10
192.1090047393372
 20
-199.0
 30
0.0
 10
6.890995260662748
 20
-199.0
 30
0.0
 10
6.890995260662748
 20
-199.0
 30
0.0
 10
3.637488416872656
 20
-199.0
 30
0.0
 10
0.9999999999990905
 20
-196.3625115831255
 30
0.0
 10
0.9999999999990905
 20
-193.1090047393354
 30
0.0
 10
0.9999999999990905
 20
-193.1090047393354
 30
0.0
 10
0.9999999999990905
 20
-7.890995260663657
 30
0.0
 10
0.9999999999990905
 20
-7.890995260663657
 30
0.0
 10
0.9999999999990905
 20
-4.637488416873566
 30
0.0
 10
3.637488416872656
 20
-2.0
 30
0.0
 10
6.890995260662748
 20
-2.0
 30
0.0
 10
6.890995260662748
 20
-2.0
 30
0.0
 10
192.1090047393354
 20
-2.0
 30
0.0
 10
192.1090047393354
 20
-2.0
 30
0.0
 10
195.3625115831255
 20
-2.0
 30
0.0
 10
198.0
 20
-4.637488416873566
 30
0.0
 10
198.0
 20
-7.890995260663657
 30
0.0
 10
198.0
 20
-7.890995260663657
 30
0.0
 10
198.0
 20
-193.1090047393372
 30
0.0
 10
198.0
 20
-193.1090047393372
 30
0.0
 10
198.0
 20
-196.3625115831255
 30
0.0
 10
195.3625115831255
 20
-199.0
 30
0.0
 10
192.1090047393372
 20
-199.0
 30
0.0
  0
HATCH
  5
7A
330
70
100
AcDbEntity
  8
Capa 2
 62
   254
420
 13232895
440
 33554687
100
AcDbHatch
 10
0.0
 20
0.0
 30
0.0
210
0.0
220
0.0
230
1.0
  2
SOLID
 70
     1
 71
     1
 91
        1
 92
        1
 93
        1
 72
     4
 94
        3
 73
     0
 74
     0
 95
       29
 96
       25
 40
0.0
 40
0.0
 40
0.0
 40
0.0
 40
1.0
 40
1.0
 40
1.0
 40
2.0
 40
2.0
 40
2.0
 40
3.0
 40
3.0
 40
3.0
 40
4.0
 40
4.0
 40
4.0
 40
5.0
 40
5.0
 40
5.0
 40
6.0
 40
6.0
 40
6.0
 40
7.0
 40
7.0
 40
7.0
 40
8.0
 40
8.0
 40
8.0
 40
8.0
 10
192.1090047393372
 20
-199.0
 10
192.1090047393372
 20
-199.0
 10
6.890995260662748
 20
-199.0
 10
6.890995260662748
 20
-199.0
 10
3.637488416872656
 20
-199.0
 10
0.9999999999990905
 20
-196.3625115831255
 10
0.9999999999990905
 20
-193.1090047393354
 10
0.9999999999990905
 20
-193.1090047393354
 10
0.9999999999990905
 20
-7.890995260663657
 10
0.9999999999990905
 20
-7.890995260663657
 10
0.9999999999990905
 20
-4.637488416873566
 10
3.637488416872656
 20
-2.0
 10
6.890995260662748
 20
-2.0
 10
6.890995260662748
 20
-2.0
 10
192.1090047393354
 20
-2.0
 10
192.1090047393354
 20
-2.0
 10
195.3625115831255
 20
-2.0
 10
198.0
 20
-4.637488416873566
 10
198.0
 20
-7.890995260663657
 10
198.0
 20
-7.890995260663657
 10
198.0
 20
-193.1090047393372
 10
198.0
 20
-193.1090047393372
 10
198.0
 20
-196.3625115831255
 10
195.3625115831255
 20
-199.0
 10
192.1090047393372
 20
-199.0
 97
        0
 97
        1
330
79
 75
     2
 76
     1
 98
        1
 10
0.0
 20
0.0
450
        0
451
        0
460
0.0
461
0.0
452
        0
462
0.0
453
        0
470

  0
INSERT
  5
7D
330
70
100
AcDbEntity
  8
twet
100
AcDbBlockReference
  2
Block_0
 10
0.0
 20
0.0
 30
0.0
  0
INSERT
  5
86
330
70
100
AcDbEntity
  8
instagrm
100
AcDbBlockReference
  2
Block_1
 10
0.0
 20
0.0
 30
0.0
  0
SPLINE
  5
91
330
70
100
AcDbEntity
  8
github
100
AcDbSpline
210
0.0
220
0.0
230
1.0
 70
     9
 71
     3
 72
   125
 73
   121
 74
     0
 42
0.0000000001
 43
0.0000000001
 40
0.0
 40
0.0
 40
0.0
 40
0.0
 40
1.0
 40
1.0
 40
1.0
 40
2.0
 40
2.0
 40
2.0
 40
3.0
 40
3.0
 40
3.0
 40
4.0
 40
4.0
 40
4.0
 40
5.0
 40
5.0
 40
5.0
 40
6.0
 40
6.0
 40
6.0
 40
7.0
 40
7.0
 40
7.0
 40
8.0
 40
8.0
 40
8.0
 40
9.0
 40
9.0
 40
9.0
 40
10.0
 40
10.0
 40
10.0
 40
11.0
 40
11.0
 40
11.0
 40
12.0
 40
12.0
 40
12.0
 40
13.0
 40
13.0
 40
13.0
 40
14.0
 40
14.0
 40
14.0
 40
15.0
 40
15.0
 40
15.0
 40
16.0
 40
16.0
 40
16.0
 40
17.0
 40
17.0
 40
17.0
 40
18.0
 40
18.0
 40
18.0
 40
19.0
 40
19.0
 40
19.0
 40
20.0
 40
20.0
 40
20.0
 40
21.0
 40
21.0
 40
21.0
 40
22.0
 40
22.0
 40
22.0
 40
23.0
 40
23.0
 40
23.0
 40
24.0
 40
24.0
 40
24.0
 40
25.0
 40
25.0
 40
25.0
 40
26.0
 40
26.0
 40
26.0
 40
27.0
 40
27.0
 40
27.0
 40
28.0
 40
28.0
 40
28.0
 40
29.0
 40
29.0
 40
29.0
 40
30.0
 40
30.0
 40
30.0
 40
31.0
 40
31.0
 40
31.0
 40
32.0
 40
32.0
 40
32.0
 40
33.0
 40
33.0
 40
33.0
 40
34.0
 40
34.0
 40
34.0
 40
35.0
 40
35.0
 40
35.0
 40
36.0
 40
36.0
 40
36.0
 40
37.0
 40
37.0
 40
37.0
 40
38.0
 40
38.0
 40
38.0
 40
39.0
 40
39.0
 40
39.0
 40
40.0
 40
40.0
 40
40.0
 40
40.0
 10
114.5558510442042
 20
-135.9706112816457
 30
0.0
 10
118.348224650801
 20
-139.7924340014342
 30
0.0
 10
119.5893371191268
 20
-144.3254889990148
 30
0.0
 10
119.669082865581
 20
-149.1898833697614
 30
0.0
 10
119.7904612948914
 20
-156.5937533670312
 30
0.0
 10
119.7086597463622
 20
-164.0009061900818
 30
0.0
 10
119.7189495200982
 20
-171.4066705392779
 30
0.0
 10
119.724858605643
 20
-175.6574670999434
 30
0.0
 10
122.1471531446404
 20
-177.3549463489944
 30
0.0
 10
126.191938345255
 20
-175.9532335576896
 30
0.0
 10
164.1018004380548
 20
-162.8158060834503
 30
0.0
 10
186.2914499423586
 20
-122.6898373361273
 30
0.0
 10
177.2614631071756
 20
-83.60324890256833
 30
0.0
 10
166.1659979350043
 20
-35.57622888441347
 30
0.0
 10
114.9444299264378
 20
-9.393796497273797
 30
0.0
 10
69.46689669370243
 20
-28.50295020656722
 30
0.0
 10
36.03720316188264
 20
-42.54973656695165
 30
0.0
 10
16.25164600660537
 20
-78.41546928406933
 30
0.0
 10
22.46103068704815
 20
-114.2733070742688
 30
0.0
 10
26.48124044218003
 20
-137.4891496172695
 30
0.0
 10
38.64384448667261
 20
-155.4994637558338
 30
0.0
 10
58.43942367706495
 20
-168.2999226179454
 30
0.0
 10
63.4803795249727
 20
-171.5595856404525
 30
0.0
 10
68.90425272688844
 20
-174.0780188918943
 30
0.0
 10
74.58439618797365
 20
-176.0193851880012
 30
0.0
 10
77.79553212050814
 20
-177.1168822814379
 30
0.0
 10
80.70764572140433
 20
-175.6401919019863
 30
0.0
 10
80.81394468104553
 20
-172.6887808385527
 30
0.0
 10
80.97861335090511
 20
-168.1166333057808
 30
0.0
 10
80.85739637202005
 20
-163.5341959977777
 30
0.0
 10
80.85739637202005
 20
-158.9542019732235
 30
0.0
 10
78.61560340786946
 20
-159.2164943713742
 30
0.0
 10
76.4779298226249
 20
-159.5745268853115
 30
0.0
 10
74.32672131010895
 20
-159.6994572421299
 30
0.0
 10
65.44151245245757
 20
-160.2154421112282
 30
0.0
 10
56.95879950365361
 20
-156.6841010378466
 30
0.0
 10
53.43841335507477
 20
-147.2340295867688
 30
0.0
 10
51.78651988027195
 20
-142.79968539322
 30
0.0
 10
49.001604996497
 20
-139.1206063963709
 30
0.0
 10
44.84071810462046
 20
-136.6183397164768
 30
0.0
 10
44.09806229591595
 20
-136.1717354866559
 30
0.0
 10
43.42495933018381
 20
-135.552820575147
 30
0.0
 10
42.84741079832747
 20
-134.9004531307728
 30
0.0
 10
41.74279928242595
 20
-133.6527210136009
 30
0.0
 10
42.01946073023918
 20
-132.759491027231
 30
0.0
 10
43.60471016055453
 20
-132.3822566733215
 30
0.0
 10
44.57022137219155
 20
-132.1525019221644
 30
0.0
 10
45.54967113716247
 20
-132.0488184443293
 30
0.0
 10
46.57204249754795
 20
-132.1938762903573
 30
0.0
 10
51.69742884506741
 20
-132.9211136892463
 30
0.0
 10
55.30673650590506
 20
-135.8997452982457
 30
0.0
 10
57.82083175640218
 20
-140.1529743789997
 30
0.0
 10
63.1288481335323
 20
-149.1328483080942
 30
0.0
 10
71.59249916885801
 20
-150.2862180199718
 30
0.0
 10
80.0727580712064
 20
-147.0384915672657
 30
0.0
 10
80.56410014877929
 20
-146.8503264515675
 30
0.0
 10
81.0680999396518
 20
-146.693073715016
 30
0.0
 10
81.17213859334606
 20
-146.0453237534602
 30
0.0
 10
81.77777142658397
 20
-142.2745409020299
 30
0.0
 10
83.25333143833995
 20
-138.8961579832757
 30
0.0
 10
86.00067949912135
 20
-135.9527548620735
 30
0.0
 10
82.04852378885243
 20
-135.4076228053964
 30
0.0
 10
78.34935551245052
 20
-134.8080388942198
 30
0.0
 10
74.73735432036028
 20
-133.7792228214493
 30
0.0
 10
65.66723629127046
 20
-131.1957788561994
 30
0.0
 10
58.29157275978014
 20
-126.4166733755573
 30
0.0
 10
53.96405557538219
 20
-117.7044842895848
 30
0.0
 10
51.52375393234706
 20
-112.7916332576515
 30
0.0
 10
50.48812211041149
 20
-107.5246137591748
 30
0.0
 10
50.011060322905
 20
-102.1094150393346
 30
0.0
 10
49.18633119079004
 20
-92.74783996059978
 30
0.0
 10
50.83530779458579
 20
-84.08990898858883
 30
0.0
 10
57.16206020670506
 20
-76.75604390565968
 30
0.0
 10
57.64228911337704
 20
-76.19936814193533
 30
0.0
 10
57.74862036310242
 20
-75.7051898467098
 30
0.0
 10
57.52826744175308
 20
-75.00729875762226
 30
0.0
 10
55.81077935022404
 20
-69.56767258497075
 30
0.0
 10
56.07379823714836
 20
-64.12721225167024
 30
0.0
 10
57.60947700539055
 20
-58.70076043559038
 30
0.0
 10
58.74459726988516
 20
-54.68971779050662
 30
0.0
 10
59.17342574300346
 20
-54.44922120286264
 30
0.0
 10
63.3842304153668
 20
-55.30832594616277
 30
0.0
 10
69.18046749519362
 20
-56.49089128075775
 30
0.0
 10
74.24851472437058
 20
-59.28993079285738
 30
0.0
 10
79.17048699093538
 20
-62.41142452179246
 30
0.0
 10
79.8691959940279
 20
-62.85454142193248
 30
0.0
 10
80.47450054473666
 20
-63.18581083323806
 30
0.0
 10
81.42407659945275
 20
-62.92467011495046
 30
0.0
 10
93.99759350160094
 20
-59.46694506426865
 30
0.0
 10
106.5917168596243
 20
-59.4889184702688
 30
0.0
 10
119.1754966271037
 20
-62.88538922090265
 30
0.0
 10
120.0479639589703
 20
-63.12088084465267
 30
0.0
 10
120.7210292529362
 20
-63.00143980307166
 30
0.0
 10
121.4566404414417
 20
-62.50252562803144
 30
0.0
 10
124.0814799199397
 20
-60.72227073418708
 30
0.0
 10
126.8333593559746
 20
-59.15600226439164
 30
0.0
 10
129.7269061580282
 20
-57.85053008526029
 30
0.0
 10
133.1111330909134
 20
-56.32367705155321
 30
0.0
 10
136.5532669094664
 20
-55.00843173862449
 30
0.0
 10
140.3525828843267
 20
-55.03498226483134
 30
0.0
 10
141.2119619684272
 20
-55.04098822150445
 30
0.0
 10
141.853630536465
 20
-55.16035391954301
 30
0.0
 10
142.2053664317773
 20
-56.16994393477307
 30
0.0
 10
144.3029841666448
 20
-62.19083477441199
 30
0.0
 10
145.00457236898
 20
-68.28654713342894
 30
0.0
 10
143.2291343383367
 20
-74.49628656233108
 30
0.0
 10
142.9149302850928
 20
-75.59522594643841
 30
0.0
 10
143.0217458860934
 20
-76.30085051199421
 30
0.0
 10
143.7553120358861
 20
-77.16948083173793
 30
0.0
 10
146.9956866403372
 20
-81.00647989365915
 30
0.0
 10
149.0809695627576
 20
-85.41643430616478
 30
0.0
 10
150.0796480733152
 20
-90.34981645342941
 30
0.0
 10
151.1934730267876
 20
-95.85202081980515
 30
0.0
 10
150.8734352315296
 20
-101.3530304528631
 30
0.0
 10
149.9980940821024
 20
-106.8251566007384
 30
0.0
 10
147.9780478946359
 20
-119.4534124147976
 30
0.0
 10
141.3179703173045
 20
-128.3754440299799
 30
0.0
 10
129.0374375009087
 20
-132.7546044603332
 30
0.0
 10
124.4292226080797
 20
-134.3978578855131
 30
0.0
 10
119.651183395159
 20
-135.2369158648289
 30
0.0
 10
114.5558510442042
 20
-135.9706112816457
 30
0.0
  0
SPLINE
  5
92
330
70
100
AcDbEntity
  8
github
100
AcDbSpline
210
0.0
220
0.0
230
1.0
 70
     9
 71
     3
 72
    41
 73
    37
 74
     0
 42
0.0000000001
 43
0.0000000001
 40
0.0
 40
0.0
 40
0.0
 40
0.0
 40
1.0
 40
1.0
 40
1.0
 40
2.0
 40
2.0
 40
2.0
 40
3.0
 40
3.0
 40
3.0
 40
4.0
 40
4.0
 40
4.0
 40
5.0
 40
5.0
 40
5.0
 40
6.0
 40
6.0
 40
6.0
 40
7.0
 40
7.0
 40
7.0
 40
8.0
 40
8.0
 40
8.0
 40
9.0
 40
9.0
 40
9.0
 40
10.0
 40
10.0
 40
10.0
 40
11.0
 40
11.0
 40
11.0
 40
12.0
 40
12.0
 40
12.0
 40
12.0
 10
92.89362778739814
 20
-11.03466827607735
 30
0.0
 10
97.59621045348104
 20
-11.03466827607735
 30
0.0
 10
102.2987931195657
 20
-11.03466827607735
 30
0.0
 10
107.001381167327
 20
-11.03466827607735
 30
0.0
 10
107.1166567705841
 20
-11.40936760568365
 30
0.0
 10
107.433239526752
 20
-11.34598493464818
 30
0.0
 10
107.7144000597327
 20
-11.36466134591046
 30
0.0
 10
111.7045181465364
 20
-11.62970887073334
 30
0.0
 10
115.6366862942232
 20
-12.26450680643847
 30
0.0
 10
119.5467464970843
 20
-13.10036621692598
 30
0.0
 10
167.9525329915086
 20
-23.4481384863675
 30
0.0
 10
199.1357784052652
 20
-71.95867837932564
 30
0.0
 10
188.5365580218986
 20
-120.4483884736237
 30
0.0
 10
177.7087453638396
 20
-169.9838938461635
 30
0.0
 10
128.3774819814316
 20
-200.9841773829394
 30
0.0
 10
79.25373621160543
 20
-189.1228865413923
 30
0.0
 10
43.38216958595057
 20
-180.4614144228835
 30
0.0
 10
16.56605994540041
 20
-151.1409797462147
 30
0.0
 10
10.96266791401194
 20
-114.5106607598554
 30
0.0
 10
10.6678033512544
 20
-112.5830823320248
 30
0.0
 10
10.80132453427904
 20
-110.5776202079814
 30
0.0
 10
10.01057668030898
 20
-108.7308746378821
 30
0.0
 10
10.01057668030898
 20
-103.7931602369262
 30
0.0
 10
10.01057668030898
 20
-98.85544583596766
 30
0.0
 10
10.01057668030898
 20
-93.91773143500996
 30
0.0
 10
10.47489220904936
 20
-93.76943381665387
 30
0.0
 10
10.34285384726809
 20
-93.36221273283081
 30
0.0
 10
10.37762564387321
 20
-93.04047966133202
 30
0.0
 10
10.71177336536311
 20
-89.94871972327564
 30
0.0
 10
11.15506123761497
 20
-86.87631231227625
 30
0.0
 10
11.73145893066248
 20
-83.81717612811916
 30
0.0
 10
18.67841474049692
 20
-46.94738845530446
 30
0.0
 10
49.68190326949207
 20
-17.36749618126941
 30
0.0
 10
86.95002414156078
 20
-12.02009504542548
 30
0.0
 10
88.93290444125796
 20
-11.73558185209731
 30
0.0
 10
90.99800067890555
 20
-11.86579727252047
 30
0.0
 10
92.89362778739814
 20
-11.03466827607735
 30
0.0
  0
INSERT
  5
95
330
70
100
AcDbEntity
  8
linkedin
100
AcDbBlockReference
  2
Block_2
 10
0.0
 20
0.0
 30
0.0
  0
SPLINE
  5
9E
330
70
100
AcDbEntity
  8
Capa 6
100
AcDbSpline
210
0.0
220
0.0
230
1.0
 70
     9
 71
     3
 72
   101
 73
    97
 74
     0
 42
0.0000000001
 43
0.0000000001
 40
0.0
 40
0.0
 40
0.0
 40
0.0
 40
1.0
 40
1.0
 40
1.0
 40
2.0
 40
2.0
 40
2.0
 40
3.0
 40
3.0
 40
3.0
 40
4.0
 40
4.0
 40
4.0
 40
5.0
 40
5.0
 40
5.0
 40
6.0
 40
6.0
 40
6.0
 40
7.0
 40
7.0
 40
7.0
 40
8.0
 40
8.0
 40
8.0
 40
9.0
 40
9.0
 40
9.0
 40
10.0
 40
10.0
 40
10.0
 40
11.0
 40
11.0
 40
11.0
 40
12.0
 40
12.0
 40
12.0
 40
13.0
 40
13.0
 40
13.0
 40
14.0
 40
14.0
 40
14.0
 40
15.0
 40
15.0
 40
15.0
 40
16.0
 40
16.0
 40
16.0
 40
17.0
 40
17.0
 40
17.0
 40
18.0
 40
18.0
 40
18.0
 40
19.0
 40
19.0
 40
19.0
 40
20.0
 40
20.0
 40
20.0
 40
21.0
 40
21.0
 40
21.0
 40
22.0
 40
22.0
 40
22.0
 40
23.0
 40
23.0
 40
23.0
 40
24.0
 40
24.0
 40
24.0
 40
25.0
 40
25.0
 40
25.0
 40
26.0
 40
26.0
 40
26.0
 40
27.0
 40
27.0
 40
27.0
 40
28.0
 40
28.0
 40
28.0
 40
29.0
 40
29.0
 40
29.0
 40
30.0
 40
30.0
 40
30.0
 40
31.0
 40
31.0
 40
31.0
 40
32.0
 40
32.0
 40
32.0
 40
32.0
 10
55.31593354930101
 20
-86.90192673257024
 30
0.0
 10
53.89071717285151
 20
-111.6921353280249
 30
0.0
 10
54.69711552739591
 20
-136.0274918678169
 30
0.0
 10
68.74096528178052
 20
-157.9368512396559
 30
0.0
 10
70.36991352019049
 20
-160.4781262795168
 30
0.0
 10
72.35464058869365
 20
-162.491913772028
 30
0.0
 10
74.95803909379265
 20
-162.5902390157116
 30
0.0
 10
84.04705569539965
 20
-162.9335514713329
 30
0.0
 10
93.16939602372258
 20
-163.0040352832839
 30
0.0
 10
102.2484665407191
 20
-162.5563989616857
 30
0.0
 10
104.4268653757754
 20
-162.4489997150776
 30
0.0
 10
107.458064959028
 20
-160.4311370715495
 30
0.0
 10
108.4521739442643
 20
-158.4606874516939
 30
0.0
 10
118.9510914721632
 20
-137.6505973493149
 30
0.0
 10
134.153974970688
 20
-120.8730050143876
 30
0.0
 10
151.8003921230793
 20
-105.9850330373192
 30
0.0
 10
153.6505701659734
 20
-104.4240763255638
 30
0.0
 10
157.8407383443391
 20
-103.2023134501378
 30
0.0
 10
156.7498830557379
 20
-100.1049052680628
 30
0.0
 10
155.3695054963191
 20
-96.18535981967035
 30
0.0
 10
151.0787255057203
 20
-95.87932141199871
 30
0.0
 10
147.3321679024448
 20
-95.86947584714653
 30
0.0
 10
140.6723630271917
 20
-95.85197986545699
 30
0.0
 10
135.2364911839813
 20
-98.88209915397602
 30
0.0
 10
130.4940329972614
 20
-103.244955830356
 30
0.0
 10
128.5024924264744
 20
-105.0770893912358
 30
0.0
 10
126.8171848516285
 20
-107.685522919819
 30
0.0
 10
123.7023664937151
 20
-106.0699809186044
 30
0.0
 10
120.5804577501567
 20
-104.4507658479433
 30
0.0
 10
119.8322754792825
 20
-101.4725259486094
 30
0.0
 10
119.8481392670728
 20
-98.03717364318437
 30
0.0
 10
119.936318473543
 20
-78.92735064838234
 30
0.0
 10
119.8842535437288
 20
-59.81690279709074
 30
0.0
 10
119.8970010364501
 20
-40.70668043748992
 30
0.0
 10
119.8988903581994
 20
-37.87874569141604
 30
0.0
 10
119.4796889514564
 20
-35.16632517600556
 30
0.0
 10
115.9557672858045
 20
-35.15392313308439
 30
0.0
 10
112.2804284259382
 20
-35.14098860376271
 30
0.0
 10
112.2192860651903
 20
-37.97664168585925
 30
0.0
 10
112.2271365228043
 20
-40.75196079879788
 30
0.0
 10
112.2624038621234
 20
-53.21505491605512
 30
0.0
 10
112.274565013613
 20
-65.67843701065157
 30
0.0
 10
112.2234664610168
 20
-78.1414224572145
 30
0.0
 10
112.2075483823682
 20
-82.02485663408152
 30
0.0
 10
111.5937251191117
 20
-85.86536588692615
 30
0.0
 10
106.5591929913953
 20
-85.88322048190548
 30
0.0
 10
101.5264307455472
 20
-85.90108051041898
 30
0.0
 10
100.8760371624539
 20
-82.10231167103392
 30
0.0
 10
100.8675569309234
 20
-78.19192716212365
 30
0.0
 10
100.833071379915
 20
-62.28659645099378
 30
0.0
 10
100.8274577055208
 20
-46.38107013261651
 30
0.0
 10
100.8762217513604
 20
-30.47581005743723
 30
0.0
 10
100.884984295335
 20
-27.61622497181543
 30
0.0
 10
100.5448303732728
 20
-24.86361260033118
 30
0.0
 10
97.06045959538915
 20
-24.86400381482781
 30
0.0
 10
93.59919500533488
 20
-24.86439231255827
 30
0.0
 10
93.18701883521134
 20
-27.61875971574682
 30
0.0
 10
93.19311569821275
 20
-30.47056126292955
 30
0.0
 10
93.22711263152815
 20
-46.37589740759449
 30
0.0
 10
93.23096185313715
 20
-62.2813965583
 30
0.0
 10
93.19220904093617
 20
-78.18671096882463
 30
0.0
 10
93.18272985767634
 20
-82.0775293193301
 30
0.0
 10
92.5873926305003
 20
-85.90967092875871
 30
0.0
 10
87.52699091044087
 20
-85.88664904229245
 30
0.0
 10
82.4680713307198
 20
-85.86363802289543
 30
0.0
 10
81.87975391107739
 20
-81.93897418482903
 30
0.0
 10
81.8530590977407
 20
-78.11162495299504
 30
0.0
 10
81.76530335993902
 20
-65.53034058924095
 30
0.0
 10
81.80526685820405
 20
-52.9480455880348
 30
0.0
 10
81.8300126298509
 20
-40.36620157020843
 30
0.0
 10
81.83532227545674
 20
-37.66612604560578
 30
0.0
 10
81.55121280287039
 20
-35.12412562886402
 30
0.0
 10
78.08251036570073
 20
-35.13384078888339
 30
0.0
 10
74.60424187990338
 20
-35.14357768304126
 30
0.0
 10
74.3688041587011
 20
-37.70333217437019
 30
0.0
 10
74.3736577611262
 20
-40.39393976478186
 30
0.0
 10
74.39806692947332
 20
-53.92533200378512
 30
0.0
 10
74.39607988418538
 20
-67.4568329134836
 30
0.0
 10
74.36979768134643
 20
-80.98823058602102
 30
0.0
 10
74.36214809989542
 20
-84.92726068979846
 30
0.0
 10
72.79921754099905
 20
-87.9471540660379
 30
0.0
 10
68.46792571450078
 20
-87.85156732383621
 30
0.0
 10
64.35710362051759
 20
-87.76082729457447
 30
0.0
 10
62.95228974732527
 20
-84.88542790624796
 30
0.0
 10
62.98098246412064
 20
-81.02211954185987
 30
0.0
 10
63.04356896160789
 20
-72.59512019201702
 30
0.0
 10
63.04792851725415
 20
-64.16682766091708
 30
0.0
 10
62.96834898219458
 20
-55.74008912073896
 30
0.0
 10
62.94091038414717
 20
-52.83415326747491
 30
0.0
 10
63.24135597496115
 20
-49.09574013138627
 30
0.0
 10
59.03164308884425
 20
-49.14356067015979
 30
0.0
 10
55.0965279175416
 20
-49.18825692649079
 30
0.0
 10
55.34201487597783
 20
-52.74241890136545
 30
0.0
 10
55.33146616287831
 20
-55.56596063464621
 30
0.0
 10
55.29244189640213
 20
-66.01115407363341
 30
0.0
 10
55.31593354930101
 20
-76.45658658814591
 30
0.0
 10
55.31593354930101
 20
-86.90192673257024
 30
0.0
  0
SPLINE
  5
9F
330
70
100
AcDbEntity
  8
Capa 6
100
AcDbSpline
210
0.0
220
0.0
230
1.0
 70
     9
 71
     3
 72
    56
 73
    52
 74
     0
 42
0.0000000001
 43
0.0000000001
 40
0.0
 40
0.0
 40
0.0
 40
0.0
 40
1.0
 40
1.0
 40
1.0
 40
2.0
 40
2.0
 40
2.0
 40
3.0
 40
3.0
 40
3.0
 40
4.0
 40
4.0
 40
4.0
 40
5.0
 40
5.0
 40
5.0
 40
6.0
 40
6.0
 40
6.0
 40
7.0
 40
7.0
 40
7.0
 40
8.0
 40
8.0
 40
8.0
 40
9.0
 40
9.0
 40
9.0
 40
10.0
 40
10.0
 40
10.0
 40
11.0
 40
11.0
 40
11.0
 40
12.0
 40
12.0
 40
12.0
 40
13.0
 40
13.0
 40
13.0
 40
14.0
 40
14.0
 40
14.0
 40
15.0
 40
15.0
 40
15.0
 40
16.0
 40
16.0
 40
16.0
 40
17.0
 40
17.0
 40
17.0
 40
17.0
 10
43.92483540162902
 20
-88.62209687770246
 30
0.0
 10
43.92483540162902
 20
-75.58088010335632
 30
0.0
 10
43.89713892202053
 20
-65.02358197672129
 30
0.0
 10
43.93240897588293
 20
-54.46650119147398
 30
0.0
 10
43.96974751131529
 20
-43.29063317554392
 30
0.0
 10
50.34078475863498
 20
-36.92094121428272
 30
0.0
 10
61.42955070828429
 20
-37.21892169001512
 30
0.0
 10
63.4684383335989
 20
-37.27371345379288
 30
0.0
 10
63.06480754403037
 20
-36.08231588695981
 30
0.0
 10
63.36246258490518
 20
-35.09901454831197
 30
0.0
 10
65.91925782019007
 20
-26.6527343006328
 30
0.0
 10
71.23020097727295
 20
-22.05501580420514
 30
0.0
 10
80.39234193129596
 20
-23.15180194831282
 30
0.0
 10
82.27425297885748
 20
-23.37708172994189
 30
0.0
 10
82.98476282554203
 20
-22.76533907698013
 30
0.0
 10
83.86937258560193
 20
-21.21995487563709
 30
0.0
 10
90.57405971057141
 20
-9.50708655150629
 30
0.0
 10
103.5513601920756
 20
-9.608203273635808
 30
0.0
 10
110.3432112845275
 20
-21.42410364087027
 30
0.0
 10
111.1851321454087
 20
-22.88880800242441
 30
0.0
 10
111.9171357415343
 20
-23.2823806538936
 30
0.0
 10
113.5998807880278
 20
-23.16061242480555
 30
0.0
 10
124.3058744945501
 20
-22.38589633246284
 30
0.0
 10
131.1713548443658
 20
-28.74778302114737
 30
0.0
 10
131.2552233569586
 20
-39.63435878330802
 30
0.0
 10
131.3676162846986
 20
-54.22377976350071
 30
0.0
 10
131.3724807452945
 20
-68.81565670137206
 30
0.0
 10
131.2188593423725
 20
-83.40432242024418
 30
0.0
 10
131.1829513709654
 20
-86.81434902049568
 30
0.0
 10
131.3369528098719
 20
-87.88662448963259
 30
0.0
 10
135.1887478062144
 20
-86.25010904452938
 30
0.0
 10
151.0094612330849
 20
-79.52835392003544
 30
0.0
 10
165.7093291031287
 20
-85.85593327071093
 30
0.0
 10
168.8877220520862
 20
-100.0633387277121
 30
0.0
 10
171.2545753025461
 20
-110.6431262544156
 30
0.0
 10
161.544232441538
 20
-112.5318446455167
 30
0.0
 10
156.563741430753
 20
-117.3421420362465
 30
0.0
 10
142.9751639270816
 20
-130.4663886541348
 30
0.0
 10
129.2352018037109
 20
-143.2771529218316
 30
0.0
 10
120.807925573863
 20
-160.646370247543
 30
0.0
 10
115.9833796145885
 20
-170.5900973367952
 30
0.0
 10
108.1126389379478
 20
-175.9247090906155
 30
0.0
 10
96.75843956978315
 20
-175.3780520328928
 30
0.0
 10
96.40369226593429
 20
-175.3609689998393
 30
0.0
 10
96.0470339239937
 20
-175.3652614922412
 30
0.0
 10
95.69189029690461
 20
-175.3774760782162
 30
0.0
 10
62.23654083314705
 20
-176.5281900540867
 30
0.0
 10
60.71746642680955
 20
-174.250941331702
 30
0.0
 10
47.41476284850887
 20
-137.3121098724968
 30
0.0
 10
41.42848760415017
 20
-120.6894819468216
 30
0.0
 10
44.76084127387366
 20
-103.2247213471837
 30
0.0
 10
43.92483540162902
 20
-88.62209687770246
 30
0.0
  0
HATCH
  5
A0
330
70
100
AcDbEntity
  8
Capa 6
 62
   250
420
  2368548
440
 33554687
100
AcDbHatch
 10
0.0
 20
0.0
 30
0.0
210
0.0
220
0.0
230
1.0
  2
SOLID
 70
     1
 71
     1
 91
        2
 92
        1
 93
        1
 72
     4
 94
        3
 73
     0
 74
     0
 95
      101
 96
       97
 40
0.0
 40
0.0
 40
0.0
 40
0.0
 40
1.0
 40
1.0
 40
1.0
 40
2.0
 40
2.0
 40
2.0
 40
3.0
 40
3.0
 40
3.0
 40
4.0
 40
4.0
 40
4.0
 40
5.0
 40
5.0
 40
5.0
 40
6.0
 40
6.0
 40
6.0
 40
7.0
 40
7.0
 40
7.0
 40
8.0
 40
8.0
 40
8.0
 40
9.0
 40
9.0
 40
9.0
 40
10.0
 40
10.0
 40
10.0
 40
11.0
 40
11.0
 40
11.0
 40
12.0
 40
12.0
 40
12.0
 40
13.0
 40
13.0
 40
13.0
 40
14.0
 40
14.0
 40
14.0
 40
15.0
 40
15.0
 40
15.0
 40
16.0
 40
16.0
 40
16.0
 40
17.0
 40
17.0
 40
17.0
 40
18.0
 40
18.0
 40
18.0
 40
19.0
 40
19.0
 40
19.0
 40
20.0
 40
20.0
 40
20.0
 40
21.0
 40
21.0
 40
21.0
 40
22.0
 40
22.0
 40
22.0
 40
23.0
 40
23.0
 40
23.0
 40
24.0
 40
24.0
 40
24.0
 40
25.0
 40
25.0
 40
25.0
 40
26.0
 40
26.0
 40
26.0
 40
27.0
 40
27.0
 40
27.0
 40
28.0
 40
28.0
 40
28.0
 40
29.0
 40
29.0
 40
29.0
 40
30.0
 40
30.0
 40
30.0
 40
31.0
 40
31.0
 40
31.0
 40
32.0
 40
32.0
 40
32.0
 40
32.0
 10
55.31593354930101
 20
-86.90192673257024
 10
53.89071717285151
 20
-111.6921353280249
 10
54.69711552739591
 20
-136.0274918678169
 10
68.74096528178052
 20
-157.9368512396559
 10
70.36991352019049
 20
-160.4781262795168
 10
72.35464058869365
 20
-162.491913772028
 10
74.95803909379265
 20
-162.5902390157116
 10
84.04705569539965
 20
-162.9335514713329
 10
93.16939602372258
 20
-163.0040352832839
 10
102.2484665407191
 20
-162.5563989616857
 10
104.4268653757754
 20
-162.4489997150776
 10
107.458064959028
 20
-160.4311370715495
 10
108.4521739442643
 20
-158.4606874516939
 10
118.9510914721632
 20
-137.6505973493149
 10
134.153974970688
 20
-120.8730050143876
 10
151.8003921230793
 20
-105.9850330373192
 10
153.6505701659734
 20
-104.4240763255638
 10
157.8407383443391
 20
-103.2023134501378
 10
156.7498830557379
 20
-100.1049052680628
 10
155.3695054963191
 20
-96.18535981967035
 10
151.0787255057203
 20
-95.87932141199871
 10
147.3321679024448
 20
-95.86947584714653
 10
140.6723630271917
 20
-95.85197986545699
 10
135.2364911839813
 20
-98.88209915397602
 10
130.4940329972614
 20
-103.244955830356
 10
128.5024924264744
 20
-105.0770893912358
 10
126.8171848516285
 20
-107.685522919819
 10
123.7023664937151
 20
-106.0699809186044
 10
120.5804577501567
 20
-104.4507658479433
 10
119.8322754792825
 20
-101.4725259486094
 10
119.8481392670728
 20
-98.03717364318437
 10
119.936318473543
 20
-78.92735064838234
 10
119.8842535437288
 20
-59.81690279709074
 10
119.8970010364501
 20
-40.70668043748992
 10
119.8988903581994
 20
-37.87874569141604
 10
119.4796889514564
 20
-35.16632517600556
 10
115.9557672858045
 20
-35.15392313308439
 10
112.2804284259382
 20
-35.14098860376271
 10
112.2192860651903
 20
-37.97664168585925
 10
112.2271365228043
 20
-40.75196079879788
 10
112.2624038621234
 20
-53.21505491605512
 10
112.274565013613
 20
-65.67843701065157
 10
112.2234664610168
 20
-78.1414224572145
 10
112.2075483823682
 20
-82.02485663408152
 10
111.5937251191117
 20
-85.86536588692615
 10
106.5591929913953
 20
-85.88322048190548
 10
101.5264307455472
 20
-85.90108051041898
 10
100.8760371624539
 20
-82.10231167103392
 10
100.8675569309234
 20
-78.19192716212365
 10
100.833071379915
 20
-62.28659645099378
 10
100.8274577055208
 20
-46.38107013261651
 10
100.8762217513604
 20
-30.47581005743723
 10
100.884984295335
 20
-27.61622497181543
 10
100.5448303732728
 20
-24.86361260033118
 10
97.06045959538915
 20
-24.86400381482781
 10
93.59919500533488
 20
-24.86439231255827
 10
93.18701883521134
 20
-27.61875971574682
 10
93.19311569821275
 20
-30.47056126292955
 10
93.22711263152815
 20
-46.37589740759449
 10
93.23096185313715
 20
-62.2813965583
 10
93.19220904093617
 20
-78.18671096882463
 10
93.18272985767634
 20
-82.0775293193301
 10
92.5873926305003
 20
-85.90967092875871
 10
87.52699091044087
 20
-85.88664904229245
 10
82.4680713307198
 20
-85.86363802289543
 10
81.87975391107739
 20
-81.93897418482903
 10
81.8530590977407
 20
-78.11162495299504
 10
81.76530335993902
 20
-65.53034058924095
 10
81.80526685820405
 20
-52.9480455880348
 10
81.8300126298509
 20
-40.36620157020843
 10
81.83532227545674
 20
-37.66612604560578
 10
81.55121280287039
 20
-35.12412562886402
 10
78.08251036570073
 20
-35.13384078888339
 10
74.60424187990338
 20
-35.14357768304126
 10
74.3688041587011
 20
-37.70333217437019
 10
74.3736577611262
 20
-40.39393976478186
 10
74.39806692947332
 20
-53.92533200378512
 10
74.39607988418538
 20
-67.4568329134836
 10
74.36979768134643
 20
-80.98823058602102
 10
74.36214809989542
 20
-84.92726068979846
 10
72.79921754099905
 20
-87.9471540660379
 10
68.46792571450078
 20
-87.85156732383621
 10
64.35710362051759
 20
-87.76082729457447
 10
62.95228974732527
 20
-84.88542790624796
 10
62.98098246412064
 20
-81.02211954185987
 10
63.04356896160789
 20
-72.59512019201702
 10
63.04792851725415
 20
-64.16682766091708
 10
62.96834898219458
 20
-55.74008912073896
 10
62.94091038414717
 20
-52.83415326747491
 10
63.24135597496115
 20
-49.09574013138627
 10
59.03164308884425
 20
-49.14356067015979
 10
55.0965279175416
 20
-49.18825692649079
 10
55.34201487597783
 20
-52.74241890136545
 10
55.33146616287831
 20
-55.56596063464621
 10
55.29244189640213
 20
-66.01115407363341
 10
55.31593354930101
 20
-76.45658658814591
 10
55.31593354930101
 20
-86.90192673257024
 97
        0
 97
        1
330
9E
 92
        1
 93
        1
 72
     4
 94
        3
 73
     0
 74
     0
 95
       56
 96
       52
 40
0.0
 40
0.0
 40
0.0
 40
0.0
 40
1.0
 40
1.0
 40
1.0
 40
2.0
 40
2.0
 40
2.0
 40
3.0
 40
3.0
 40
3.0
 40
4.0
 40
4.0
 40
4.0
 40
5.0
 40
5.0
 40
5.0
 40
6.0
 40
6.0
 40
6.0
 40
7.0
 40
7.0
 40
7.0
 40
8.0
 40
8.0
 40
8.0
 40
9.0
 40
9.0
 40
9.0
 40
10.0
 40
10.0
 40
10.0
 40
11.0
 40
11.0
 40
11.0
 40
12.0
 40
12.0
 40
12.0
 40
13.0
 40
13.0
 40
13.0
 40
14.0
 40
14.0
 40
14.0
 40
15.0
 40
15.0
 40
15.0
 40
16.0
 40
16.0
 40
16.0
 40
17.0
 40
17.0
 40
17.0
 40
17.0
 10
43.92483540162902
 20
-88.62209687770246
 10
43.92483540162902
 20
-75.58088010335632
 10
43.89713892202053
 20
-65.02358197672129
 10
43.93240897588293
 20
-54.46650119147398
 10
43.96974751131529
 20
-43.29063317554392
 10
50.34078475863498
 20
-36.92094121428272
 10
61.42955070828429
 20
-37.21892169001512
 10
63.4684383335989
 20
-37.27371345379288
 10
63.06480754403037
 20
-36.08231588695981
 10
63.36246258490518
 20
-35.09901454831197
 10
65.91925782019007
 20
-26.6527343006328
 10
71.23020097727295
 20
-22.05501580420514
 10
80.39234193129596
 20
-23.15180194831282
 10
82.27425297885748
 20
-23.37708172994189
 10
82.98476282554203
 20
-22.76533907698013
 10
83.86937258560193
 20
-21.21995487563709
 10
90.57405971057141
 20
-9.50708655150629
 10
103.5513601920756
 20
-9.608203273635808
 10
110.3432112845275
 20
-21.42410364087027
 10
111.1851321454087
 20
-22.88880800242441
 10
111.9171357415343
 20
-23.2823806538936
 10
113.5998807880278
 20
-23.16061242480555
 10
124.3058744945501
 20
-22.38589633246284
 10
131.1713548443658
 20
-28.74778302114737
 10
131.2552233569586
 20
-39.63435878330802
 10
131.3676162846986
 20
-54.22377976350071
 10
131.3724807452945
 20
-68.81565670137206
 10
131.2188593423725
 20
-83.40432242024418
 10
131.1829513709654
 20
-86.81434902049568
 10
131.3369528098719
 20
-87.88662448963259
 10
135.1887478062144
 20
-86.25010904452938
 10
151.0094612330849
 20
-79.52835392003544
 10
165.7093291031287
 20
-85.85593327071093
 10
168.8877220520862
 20
-100.0633387277121
 10
171.2545753025461
 20
-110.6431262544156
 10
161.544232441538
 20
-112.5318446455167
 10
156.563741430753
 20
-117.3421420362465
 10
142.9751639270816
 20
-130.4663886541348
 10
129.2352018037109
 20
-143.2771529218316
 10
120.807925573863
 20
-160.646370247543
 10
115.9833796145885
 20
-170.5900973367952
 10
108.1126389379478
 20
-175.9247090906155
 10
96.75843956978315
 20
-175.3780520328928
 10
96.40369226593429
 20
-175.3609689998393
 10
96.0470339239937
 20
-175.3652614922412
 10
95.69189029690461
 20
-175.3774760782162
 10
62.23654083314705
 20
-176.5281900540867
 10
60.71746642680955
 20
-174.250941331702
 10
47.41476284850887
 20
-137.3121098724968
 10
41.42848760415017
 20
-120.6894819468216
 10
44.76084127387366
 20
-103.2247213471837
 10
43.92483540162902
 20
-88.62209687770246
 97
        0
 97
        1
330
9F
 75
     2
 76
     1
 98
        1
 10
0.0
 20
0.0
450
        0
451
        0
460
0.0
461
0.0
452
        0
462
0.0
453
        0
470

  0
ENDSEC
  0
SECTION
  2
OBJECTS
  0
DICTIONARY
  5
C
330
0
100
AcDbDictionary
281
     1
  3
ACAD_COLOR
350
63
  3
ACAD_DETAILVIEWSTYLE
350
6A
  3
ACAD_GROUP
350
D
  3
ACAD_LAYOUT
350
62
  3
ACAD_MATERIAL
350
10
  3
ACAD_MLEADERSTYLE
350
66
  3
ACAD_MLINESTYLE
350
5F
  3
ACAD_PLOTSETTINGS
350
61
  3
ACAD_PLOTSTYLENAME
350
E
  3
ACAD_SCALELIST
350
42
  3
ACAD_SECTIONVIEWSTYLE
350
68
  3
ACAD_TABLESTYLE
350
64
  3
ACAD_VISUALSTYLE
350
29
  3
ACDB_RECOMPOSE_DATA
350
A9
  3
AcDbVariableDictionary
350
A1
  0
DICTIONARY
  5
63
102
{ACAD_REACTORS
330
C
102
}
330
C
100
AcDbDictionary
281
     1
  0
DICTIONARY
  5
6A
102
{ACAD_REACTORS
330
C
102
}
330
C
100
AcDbDictionary
281
     1
  3
Imperial24
350
6B
  0
DICTIONARY
  5
D
102
{ACAD_REACTORS
330
C
102
}
330
C
100
AcDbDictionary
281
     1
  0
DICTIONARY
  5
62
102
{ACAD_REACTORS
330
C
102
}
330
C
100
AcDbDictionary
281
     1
  3
Layout1
350
6F
  3
Layout2
350
77
  3
Model
350
73
  0
DICTIONARY
  5
10
102
{ACAD_REACTORS
330
C
102
}
330
C
100
AcDbDictionary
281
     1
  3
ByBlock
350
19
  3
ByLayer
350
11
  3
Global
350
21
  0
DICTIONARY
  5
66
102
{ACAD_REACTORS
330
C
102
}
330
C
100
AcDbDictionary
281
     1
  3
Standard
350
67
  0
DICTIONARY
  5
5F
102
{ACAD_REACTORS
330
C
102
}
330
C
100
AcDbDictionary
281
     1
  3
Standard
350
60
  0
DICTIONARY
  5
61
102
{ACAD_REACTORS
330
C
102
}
330
C
100
AcDbDictionary
281
     1
  0
ACDBDICTIONARYWDFLT
  5
E
102
{ACAD_REACTORS
330
C
102
}
330
C
100
AcDbDictionary
281
     1
  3
Normal
350
F
100
AcDbDictionaryWithDefault
340
F
  0
DICTIONARY
  5
42
102
{ACAD_REACTORS
330
C
102
}
330
C
100
AcDbDictionary
281
     1
  3
A0
350
43
  3
A1
350
44
  3
A2
350
45
  3
A3
350
46
  3
A4
350
47
  3
A5
350
48
  3
A6
350
49
  3
A7
350
4A
  3
A8
350
4B
  3
A9
350
4C
  3
B0
350
4D
  3
B1
350
4E
  3
B2
350
4F
  3
B3
350
50
  3
B4
350
51
  3
B5
350
52
  3
B6
350
53
  0
DICTIONARY
  5
68
102
{ACAD_REACTORS
330
C
102
}
330
C
100
AcDbDictionary
281
     1
  3
Imperial24
350
69
  0
DICTIONARY
  5
64
102
{ACAD_REACTORS
330
C
102
}
330
C
100
AcDbDictionary
281
     1
  3
Standard
350
65
  0
DICTIONARY
  5
29
102
{ACAD_REACTORS
330
C
102
}
330
C
100
AcDbDictionary
281
     1
  3
2dWireframe
350
2F
  3
Basic
350
2E
  3
Brighten
350
35
  3
ColorChange
350
39
  3
Conceptual
350
32
  3
Dim
350
34
  3
EdgeColorOff
350
41
  3
Facepattern
350
38
  3
Flat
350
2A
  3
FlatWithEdges
350
2B
  3
Gouraud
350
2C
  3
GouraudWithEdges
350
2D
  3
Hidden
350
31
  3
JitterOff
350
3F
  3
Linepattern
350
37
  3
OverhangOff
350
40
  3
Realistic
350
33
  3
Shaded
350
3E
  3
Shaded with edges
350
3D
  3
Shades of Gray
350
3A
  3
Sketchy
350
3B
  3
Thicken
350
36
  3
Wireframe
350
30
  3
X-Ray
350
3C
  0
XRECORD
  5
A9
102
{ACAD_REACTORS
330
C
102
}
330
C
100
AcDbXrecord
280
     1
 90
        1
330
65
  0
DICTIONARY
  5
A1
102
{ACAD_REACTORS
330
C
102
}
330
C
100
AcDbDictionary
281
     1
  3
CANNOSCALE
350
A6
  3
CMLEADERSTYLE
350
A3
  3
CTABLESTYLE
350
A2
  3
CVIEWDETAILSTYLE
350
A4
  3
CVIEWSECTIONSTYLE
350
A5
  0
ACDBDETAILVIEWSTYLE
  5
6B
102
{ACAD_REACTORS
330
6A
102
}
330
6A
100
AcDbModelDocViewStyle
 70
     0
  3
Imperial24
290
     1
300
Imperial24
 90
        0
100
AcDbDetailViewStyle
 70
     0
 71
     0
 90
        3
 71
     1
340
55
 62
   256
 40
0.24
340
0
 62
   256
 40
0.24
300

 40
0.36
280
     3
 71
     2
340
5D
 90
       25
 62
   256
 71
     3
340
55
 62
   256
 40
0.24
 90
        1
 40
0.75
 90
        1
300
%<\AcVar ViewType \f "%tc1">% %<\AcVar ViewDetailId>%\PSCALE %<\AcVar ViewScale \f "%sn">%
 71
     4
340
5D
 90
       25
 62
   256
340
5D
 90
       25
 62
   256
280
     0
  0
LAYOUT
  5
6F
102
{ACAD_REACTORS
330
62
102
}
330
62
100
AcDbPlotSettings
  1

  2

  4

  6

 40
0.0
 41
0.0
 42
0.0
 43
0.0
 44
0.0
 45
0.0
 46
0.0
 47
0.0
 48
0.0
 49
0.0
140
0.0
141
0.0
142
1.0
143
1.0
 70
   688
 72
     0
 73
     0
 74
     5
  7

 75
    16
147
1.0
 76
     0
 77
     2
 78
   300
148
0.0
149
0.0
100
AcDbLayout
  1
Layout1
 70
     1
 71
     1
 10
0.0
 20
0.0
 11
12.0
 21
9.0
 12
0.0
 22
0.0
 32
0.0
 14
0.0
 24
0.0
 34
0.0
 15
0.0
 25
0.0
 35
0.0
146
0.0
 13
0.0
 23
0.0
 33
0.0
 16
1.0
 26
0.0
 36
0.0
 17
0.0
 27
1.0
 37
0.0
 76
     0
330
6C
  0
LAYOUT
  5
77
102
{ACAD_REACTORS
330
62
102
}
330
62
100
AcDbPlotSettings
  1

  2

  4

  6

 40
0.0
 41
0.0
 42
0.0
 43
0.0
 44
0.0
 45
0.0
 46
0.0
 47
0.0
 48
0.0
 49
0.0
140
0.0
141
0.0
142
1.0
143
1.0
 70
   688
 72
     0
 73
     0
 74
     5
  7

 75
    16
147
1.0
 76
     0
 77
     2
 78
   300
148
0.0
149
0.0
100
AcDbLayout
  1
Layout2
 70
     1
 71
     2
 10
0.0
 20
0.0
 11
12.0
 21
9.0
 12
0.0
 22
0.0
 32
0.0
 14
0.0
 24
0.0
 34
0.0
 15
0.0
 25
0.0
 35
0.0
146
0.0
 13
0.0
 23
0.0
 33
0.0
 16
1.0
 26
0.0
 36
0.0
 17
0.0
 27
1.0
 37
0.0
 76
     0
330
74
  0
LAYOUT
  5
73
102
{ACAD_REACTORS
330
62
102
}
330
62
100
AcDbPlotSettings
  1

  2

  4

  6

 40
0.0
 41
0.0
 42
0.0
 43
0.0
 44
0.0
 45
0.0
 46
0.0
 47
0.0
 48
0.0
 49
0.0
140
0.0
141
0.0
142
1.0
143
1.0
 70
  1712
 72
     0
 73
     0
 74
     0
  7

 75
     0
147
1.0
 76
     0
 77
     2
 78
   300
148
0.0
149
0.0
100
AcDbLayout
  1
Model
 70
     1
 71
     0
 10
0.0
 20
0.0
 11
12.0
 21
9.0
 12
0.0
 22
0.0
 32
0.0
 14
0.0
 24
0.0
 34
0.0
 15
0.0
 25
0.0
 35
0.0
146
0.0
 13
0.0
 23
0.0
 33
0.0
 16
1.0
 26
0.0
 36
0.0
 17
0.0
 27
1.0
 37
0.0
 76
     0
330
70
  0
MATERIAL
  5
19
102
{ACAD_XDICTIONARY
360
1A
102
}
102
{ACAD_REACTORS
330
10
102
}
330
10
100
AcDbMaterial
  1
ByBlock
 72
     0
 43
0.0208333333333333
 43
0.0
 43
0.0
 43
0.0
 43
0.0
 43
0.0208333333333333
 43
0.0
 43
0.0
 43
0.0
 43
0.0
 43
1.0
 43
0.0
 43
0.0
 43
0.0
 43
0.0
 43
1.0
 77
     0
 47
0.0208333333333333
 47
0.0
 47
0.0
 47
0.0
 47
0.0
 47
0.0208333333333333
 47
0.0
 47
0.0
 47
0.0
 47
0.0
 47
1.0
 47
0.0
 47
0.0
 47
0.0
 47
0.0
 47
1.0
171
     0
 49
0.0208333333333333
 49
0.0
 49
0.0
 49
0.0
 49
0.0
 49
0.0208333333333333
 49
0.0
 49
0.0
 49
0.0
 49
0.0
 49
1.0
 49
0.0
 49
0.0
 49
0.0
 49
0.0
 49
1.0
175
     0
142
0.0208333333333333
142
0.0
142
0.0
142
0.0
142
0.0
142
0.0208333333333333
142
0.0
142
0.0
142
0.0
142
0.0
142
1.0
142
0.0
142
0.0
142
0.0
142
0.0
142
1.0
179
     0
144
0.0208333333333333
144
0.0
144
0.0
144
0.0
144
0.0
144
0.0208333333333333
144
0.0
144
0.0
144
0.0
144
0.0
144
1.0
144
0.0
144
0.0
144
0.0
144
0.0
144
1.0
147
0.0208333333333333
147
0.0
147
0.0
147
0.0
147
0.0
147
0.0208333333333333
147
0.0
147
0.0
147
0.0
147
0.0
147
1.0
147
0.0
147
0.0
147
0.0
147
0.0
147
1.0
  0
MATERIAL
  5
11
102
{ACAD_XDICTIONARY
360
12
102
}
102
{ACAD_REACTORS
330
10
102
}
330
10
100
AcDbMaterial
  1
ByLayer
 72
     0
 43
0.0208333333333333
 43
0.0
 43
0.0
 43
0.0
 43
0.0
 43
0.0208333333333333
 43
0.0
 43
0.0
 43
0.0
 43
0.0
 43
1.0
 43
0.0
 43
0.0
 43
0.0
 43
0.0
 43
1.0
 77
     0
 47
0.0208333333333333
 47
0.0
 47
0.0
 47
0.0
 47
0.0
 47
0.0208333333333333
 47
0.0
 47
0.0
 47
0.0
 47
0.0
 47
1.0
 47
0.0
 47
0.0
 47
0.0
 47
0.0
 47
1.0
171
     0
 49
0.0208333333333333
 49
0.0
 49
0.0
 49
0.0
 49
0.0
 49
0.0208333333333333
 49
0.0
 49
0.0
 49
0.0
 49
0.0
 49
1.0
 49
0.0
 49
0.0
 49
0.0
 49
0.0
 49
1.0
175
     0
142
0.0208333333333333
142
0.0
142
0.0
142
0.0
142
0.0
142
0.0208333333333333
142
0.0
142
0.0
142
0.0
142
0.0
142
1.0
142
0.0
142
0.0
142
0.0
142
0.0
142
1.0
179
     0
144
0.0208333333333333
144
0.0
144
0.0
144
0.0
144
0.0
144
0.0208333333333333
144
0.0
144
0.0
144
0.0
144
0.0
144
1.0
144
0.0
144
0.0
144
0.0
144
0.0
144
1.0
147
0.0208333333333333
147
0.0
147
0.0
147
0.0
147
0.0
147
0.0208333333333333
147
0.0
147
0.0
147
0.0
147
0.0
147
1.0
147
0.0
147
0.0
147
0.0
147
0.0
147
1.0
  0
MATERIAL
  5
21
102
{ACAD_XDICTIONARY
360
22
102
}
102
{ACAD_REACTORS
330
10
102
}
330
10
100
AcDbMaterial
  1
Global
 72
     0
 43
0.0208333333333333
 43
0.0
 43
0.0
 43
0.0
 43
0.0
 43
0.0208333333333333
 43
0.0
 43
0.0
 43
0.0
 43
0.0
 43
1.0
 43
0.0
 43
0.0
 43
0.0
 43
0.0
 43
1.0
 77
     0
 47
0.0208333333333333
 47
0.0
 47
0.0
 47
0.0
 47
0.0
 47
0.0208333333333333
 47
0.0
 47
0.0
 47
0.0
 47
0.0
 47
1.0
 47
0.0
 47
0.0
 47
0.0
 47
0.0
 47
1.0
171
     0
 49
0.0208333333333333
 49
0.0
 49
0.0
 49
0.0
 49
0.0
 49
0.0208333333333333
 49
0.0
 49
0.0
 49
0.0
 49
0.0
 49
1.0
 49
0.0
 49
0.0
 49
0.0
 49
0.0
 49
1.0
175
     0
142
0.0208333333333333
142
0.0
142
0.0
142
0.0
142
0.0
142
0.0208333333333333
142
0.0
142
0.0
142
0.0
142
0.0
142
1.0
142
0.0
142
0.0
142
0.0
142
0.0
142
1.0
179
     0
144
0.0208333333333333
144
0.0
144
0.0
144
0.0
144
0.0
144
0.0208333333333333
144
0.0
144
0.0
144
0.0
144
0.0
144
1.0
144
0.0
144
0.0
144
0.0
144
0.0
144
1.0
147
0.0208333333333333
147
0.0
147
0.0
147
0.0
147
0.0
147
0.0208333333333333
147
0.0
147
0.0
147
0.0
147
0.0
147
1.0
147
0.0
147
0.0
147
0.0
147
0.0
147
1.0
  0
MLEADERSTYLE
  5
67
102
{ACAD_REACTORS
330
66
102
}
330
66
100
AcDbMLeaderStyle
179
     2
170
     2
171
     1
172
     0
 90
        2
 40
0.0
 41
0.0
173
     1
 91
-1056964608
340
5B
 92
       -2
290
     1
 42
0.09
291
     1
 43
0.36
  3
Standard
 44
0.18
300

342
55
174
     1
178
     6
175
     1
176
     0
 93
-1056964608
 45
0.18
292
     0
297
     0
 46
0.18
 94
-1056964608
 47
1.0
 49
1.0
140
1.0
293
     1
141
0.0
294
     1
177
     0
142
1.0
295
     1
296
     0
143
0.125
271
     0
272
     9
273
     9
298
     1
  0
MLINESTYLE
  5
60
102
{ACAD_REACTORS
330
5F
102
}
330
5F
100
AcDbMlineStyle
  2
STANDARD
 70
     0
  3

 62
   256
 51
90.0
 52
90.0
 71
     2
 49
0.5
 62
   256
  6
BYLAYER
 49
-0.5
 62
   256
  6
BYLAYER
  0
ACDBPLACEHOLDER
  5
F
102
{ACAD_REACTORS
330
E
102
}
330
E
  0
SCALE
  5
43
102
{ACAD_REACTORS
330
42
102
}
330
42
100
AcDbScale
 70
     0
300
1:1
140
1.0
141
1.0
290
     1
  0
SCALE
  5
44
102
{ACAD_REACTORS
330
42
102
}
330
42
100
AcDbScale
 70
     0
300
1/128" = 1'-0"
140
0.0078125
141
12.0
290
     0
  0
SCALE
  5
45
102
{ACAD_REACTORS
330
42
102
}
330
42
100
AcDbScale
 70
     0
300
1/64" = 1'-0"
140
0.015625
141
12.0
290
     0
  0
SCALE
  5
46
102
{ACAD_REACTORS
330
42
102
}
330
42
100
AcDbScale
 70
     0
300
1/32" = 1'-0"
140
0.03125
141
12.0
290
     0
  0
SCALE
  5
47
102
{ACAD_REACTORS
330
42
102
}
330
42
100
AcDbScale
 70
     0
300
1/16" = 1'-0"
140
0.0625
141
12.0
290
     0
  0
SCALE
  5
48
102
{ACAD_REACTORS
330
42
102
}
330
42
100
AcDbScale
 70
     0
300
3/32" = 1'-0"
140
0.09375
141
12.0
290
     0
  0
SCALE
  5
49
102
{ACAD_REACTORS
330
42
102
}
330
42
100
AcDbScale
 70
     0
300
1/8" = 1'-0"
140
0.125
141
12.0
290
     0
  0
SCALE
  5
4A
102
{ACAD_REACTORS
330
42
102
}
330
42
100
AcDbScale
 70
     0
300
3/16" = 1'-0"
140
0.1875
141
12.0
290
     0
  0
SCALE
  5
4B
102
{ACAD_REACTORS
330
42
102
}
330
42
100
AcDbScale
 70
     0
300
1/4" = 1'-0"
140
0.25
141
12.0
290
     0
  0
SCALE
  5
4C
102
{ACAD_REACTORS
330
42
102
}
330
42
100
AcDbScale
 70
     0
300
3/8" = 1'-0"
140
0.375
141
12.0
290
     0
  0
SCALE
  5
4D
102
{ACAD_REACTORS
330
42
102
}
330
42
100
AcDbScale
 70
     0
300
1/2" = 1'-0"
140
0.5
141
12.0
290
     0
  0
SCALE
  5
4E
102
{ACAD_REACTORS
330
42
102
}
330
42
100
AcDbScale
 70
     0
300
3/4" = 1'-0"
140
0.75
141
12.0
290
     0
  0
SCALE
  5
4F
102
{ACAD_REACTORS
330
42
102
}
330
42
100
AcDbScale
 70
     0
300
1" = 1'-0"
140
1.0
141
12.0
290
     0
  0
SCALE
  5
50
102
{ACAD_REACTORS
330
42
102
}
330
42
100
AcDbScale
 70
     0
300
1-1/2" = 1'-0"
140
1.5
141
12.0
290
     0
  0
SCALE
  5
51
102
{ACAD_REACTORS
330
42
102
}
330
42
100
AcDbScale
 70
     0
300
3" = 1'-0"
140
3.0
141
12.0
290
     0
  0
SCALE
  5
52
102
{ACAD_REACTORS
330
42
102
}
330
42
100
AcDbScale
 70
     0
300
6" = 1'-0"
140
6.0
141
12.0
290
     0
  0
SCALE
  5
53
102
{ACAD_REACTORS
330
42
102
}
330
42
100
AcDbScale
 70
     0
300
1'-0" = 1'-0"
140
12.0
141
12.0
290
     0
  0
ACDBSECTIONVIEWSTYLE
  5
69
102
{ACAD_REACTORS
330
68
102
}
330
68
100
AcDbModelDocViewStyle
 70
     0
  3
Imperial24
290
     1
300
Imperial24
 90
        0
100
AcDbSectionViewStyle
 70
     0
 71
     0
 90
       78
 71
     1
340
55
 62
   256
 40
0.24
340
0
340
0
 62
   256
 40
0.24
300
I, O, Q, S, X, Z
 40
0.48
 90
        3
 40
0.18
 90
        1
 71
     2
340
5D
 90
       25
 62
   256
340
5D
 90
       50
 62
   256
 40
0.24
 40
0.0
 40
0.24
 71
     3
340
55
 62
   256
 40
0.24
 90
        1
 40
0.75
 90
        1
300
%<\AcVar ViewType \f "%tc1">% %<\AcVar ViewSectionStartId>%-%<\AcVar ViewSectionEndId>%\PSCALE %<\AcVar ViewScale \f "%sn">%
 71
     4
 62
   256
 62
   257
300
ANSI31
 40
1.0
 90
        0
290
     0
290
     0
 90
        6
 40
0.0
 40
1.570796326794896
 40
0.2617993877991494
 40
1.308996938995747
 40
-0.2617993877991494
 40
1.832595714594046
  0
TABLESTYLE
  5
65
102
{ACAD_XDICTIONARY
360
A7
102
}
102
{ACAD_REACTORS
330
64
102
}
330
64
100
AcDbTableStyle
280
     0
  3
Standard
 70
     0
 71
     0
 40
0.06
 41
0.06
280
     0
281
     0
  7
Standard
140
0.18
170
     2
 62
     0
 63
     7
283
     0
 90
      512
 91
        0
  1

274
    -2
284
     1
 64
     0
275
    -2
285
     1
 65
     0
276
    -2
286
     1
 66
     0
277
    -2
287
     1
 67
     0
278
    -2
288
     1
 68
     0
279
    -2
289
     1
 69
     0
  7
Standard
140
0.25
170
     5
 62
     0
 63
     7
283
     0
 90
      512
 91
        0
  1

274
    -2
284
     1
 64
     0
275
    -2
285
     1
 65
     0
276
    -2
286
     1
 66
     0
277
    -2
287
     1
 67
     0
278
    -2
288
     1
 68
     0
279
    -2
289
     1
 69
     0
  7
Standard
140
0.18
170
     5
 62
     0
 63
     7
283
     0
 90
      512
 91
        0
  1

274
    -2
284
     1
 64
     0
275
    -2
285
     1
 65
     0
276
    -2
286
     1
 66
     0
277
    -2
287
     1
 67
     0
278
    -2
288
     1
 68
     0
279
    -2
289
     1
 69
     0
  0
VISUALSTYLE
  5
2F
102
{ACAD_REACTORS
330
29
102
}
330
29
100
AcDbVisualStyle
  2
2dWireframe
 70
     4
177
     3
291
     0
 70
    58
 90
        0
176
     1
 90
        2
176
     1
 90
        0
176
     1
 90
        0
176
     1
 40
0.6
176
     1
 40
30.0
176
     1
 62
     7
420
 16777215
176
     1
 90
        1
176
     1
 90
        4
176
     1
 62
     7
176
     1
 62
   257
176
     1
 90
        1
176
     1
 90
        1
176
     1
 40
1.0
176
     1
 90
        0
176
     1
 62
   257
176
     1
 40
1.0
176
     1
 90
        1
176
     1
 90
        6
176
     1
 90
        2
176
     1
 62
     7
176
     1
 90
        5
176
     1
 90
        0
176
     1
 90
        0
176
     1
290
     0
176
     1
 90
        1
176
     1
 40
0.0
176
     1
 90
        0
176
     1
290
     1
176
     1
290
     1
176
     1
290
     0
176
     1
290
     0
176
     1
290
     0
176
     1
290
     0
176
     1
290
     0
176
     1
290
     0
176
     1
290
     0
176
     1
 90
       50
176
     1
 40
0.0
176
     1
 40
1.0
176
     1
 90
        0
176
     1
 62
    18
420
        0
176
     1
 90
       50
176
     1
 90
        3
176
     1
 62
     5
420
      255
176
     1
290
     0
176
     1
 90
       50
176
     1
 90
       50
176
     1
 90
       50
176
     1
290
     0
176
     1
 90
       50
176
     1
 62
   256
176
     0
 40
1.0
176
     0
 90
        2
176
     1
  1
strokes_ogs.tif
176
     1
290
     0
176
     1
 40
1.0
176
     1
 40
1.0
176
     1
  0
VISUALSTYLE
  5
2E
102
{ACAD_REACTORS
330
29
102
}
330
29
100
AcDbVisualStyle
  2
Basic
 70
     7
177
     3
291
     1
 70
    58
 90
        1
176
     1
 90
        0
176
     1
 90
        1
176
     1
 90
        0
176
     1
 40
0.6
176
     1
 40
30.0
176
     1
 62
     7
420
 16777215
176
     1
 90
        0
176
     1
 90
        4
176
     1
 62
     7
176
     1
 62
   257
176
     1
 90
        1
176
     1
 90
        1
176
     1
 40
1.0
176
     1
 90
        8
176
     1
 62
     7
176
     1
 40
1.0
176
     1
 90
        1
176
     1
 90
        6
176
     1
 90
        2
176
     1
 62
     7
176
     1
 90
        5
176
     1
 90
        0
176
     1
 90
        0
176
     1
290
     0
176
     1
 90
        1
176
     1
 40
0.0
176
     1
 90
        0
176
     1
290
     0
176
     1
290
     1
176
     1
290
     1
176
     1
290
     0
176
     1
290
     0
176
     1
290
     0
176
     1
290
     0
176
     1
290
     0
176
     1
290
     0
176
     1
 90
       50
176
     1
 40
0.0
176
     1
 40
1.0
176
     1
 90
        0
176
     1
 62
    18
420
        0
176
     1
 90
       50
176
     1
 90
        3
176
     1
 62
     5
420
      255
176
     1
290
     0
176
     1
 90
       50
176
     1
 90
       50
176
     1
 90
       50
176
     1
290
     0
176
     1
 90
       50
176
     1
 62
   256
176
     0
 40
1.0
176
     0
 90
        2
176
     1
  1
strokes_ogs.tif
176
     1
290
     0
176
     1
 40
1.0
176
     1
 40
1.0
176
     1
  0
VISUALSTYLE
  5
35
102
{ACAD_REACTORS
330
29
102
}
330
29
100
AcDbVisualStyle
  2
Brighten
 70
    12
177
     3
291
     1
 70
    58
 90
        2
176
     1
 90
        2
176
     1
 90
        0
176
     1
 90
        0
176
     1
 40
0.6
176
     1
 40
30.0
176
     1
 62
     7
420
 16777215
176
     1
 90
        1
176
     1
 90
        4
176
     1
 62
     7
176
     1
 62
   257
176
     1
 90
        1
176
     1
 90
        1
176
     1
 40
1.0
176
     1
 90
        8
176
     1
 62
     7
176
     1
 40
1.0
176
     1
 90
        1
176
     1
 90
        6
176
     1
 90
        2
176
     1
 62
     7
176
     1
 90
        5
176
     1
 90
        0
176
     1
 90
        0
176
     1
290
     0
176
     1
 90
        1
176
     1
 40
50.0
176
     1
 90
        0
176
     1
290
     0
176
     1
290
     1
176
     1
290
     1
176
     1
290
     0
176
     1
290
     0
176
     1
290
     0
176
     1
290
     0
176
     1
290
     0
176
     1
290
     0
176
     1
 90
       50
176
     1
 40
0.0
176
     1
 40
1.0
176
     1
 90
        0
176
     1
 62
    18
420
        0
176
     1
 90
       50
176
     1
 90
        3
176
     1
 62
     5
420
      255
176
     1
290
     0
176
     1
 90
       50
176
     1
 90
       50
176
     1
 90
       50
176
     1
290
     0
176
     1
 90
       50
176
     1
 62
   256
176
     0
 40
1.0
176
     0
 90
        2
176
     1
  1
strokes_ogs.tif
176
     1
290
     0
176
     1
 40
1.0
176
     1
 40
1.0
176
     1
  0
VISUALSTYLE
  5
39
102
{ACAD_REACTORS
330
29
102
}
330
29
100
AcDbVisualStyle
  2
ColorChange
 70
    16
177
     3
291
     1
 70
    58
 90
        2
176
     1
 90
        2
176
     1
 90
        3
176
     1
 90
        0
176
     1
 40
0.6
176
     1
 40
30.0
176
     1
 62
     8
420
  8421504
176
     1
 90
        1
176
     1
 90
        4
176
     1
 62
     7
176
     1
 62
   257
176
     1
 90
        1
176
     1
 90
        1
176
     1
 40
1.0
176
     1
 90
        8
176
     1
 62
     8
420
  8421504
176
     1
 40
1.0
176
     1
 90
        1
176
     1
 90
        6
176
     1
 90
        2
176
     1
 62
     7
176
     1
 90
        5
176
     1
 90
        0
176
     1
 90
        0
176
     1
290
     0
176
     1
 90
        1
176
     1
 40
0.0
176
     1
 90
        0
176
     1
290
     0
176
     1
290
     1
176
     1
290
     1
176
     1
290
     0
176
     1
290
     0
176
     1
290
     0
176
     1
290
     0
176
     1
290
     0
176
     1
290
     0
176
     1
 90
       50
176
     1
 40
0.0
176
     1
 40
1.0
176
     1
 90
        0
176
     1
 62
    18
420
        0
176
     1
 90
       50
176
     1
 90
        3
176
     1
 62
     5
420
      255
176
     1
290
     0
176
     1
 90
       50
176
     1
 90
       50
176
     1
 90
       50
176
     1
290
     0
176
     1
 90
       50
176
     1
 62
   256
176
     0
 40
1.0
176
     0
 90
        2
176
     1
  1
strokes_ogs.tif
176
     1
290
     0
176
     1
 40
1.0
176
     1
 40
1.0
176
     1
  0
VISUALSTYLE
  5
32
102
{ACAD_REACTORS
330
29
102
}
330
29
100
AcDbVisualStyle
  2
Conceptual
 70
     9
177
     3
291
     0
 70
    58
 90
        3
176
     1
 90
        2
176
     1
 90
        0
176
     1
 90
        0
176
     1
 40
0.6
176
     1
 40
30.0
176
     1
 62
     7
420
 16777215
176
     1
 90
        2
176
     1
 90
        2
176
     1
 62
     7
176
     1
 62
   257
176
     1
 90
        1
176
     1
 90
        1
176
     1
 40
179.0
176
     1
 90
        8
176
     1
 62
     7
176
     1
 40
1.0
176
     1
 90
        1
176
     1
 90
        6
176
     1
 90
        2
176
     1
 62
     7
176
     1
 90
        3
176
     1
 90
        0
176
     1
 90
        0
176
     1
290
     0
176
     1
 90
        1
176
     1
 40
0.0
176
     1
 90
        0
176
     1
290
     0
176
     1
290
     1
176
     1
290
     1
176
     1
290
     0
176
     1
290
     0
176
     1
290
     0
176
     1
290
     0
176
     1
290
     0
176
     1
290
     0
176
     1
 90
       50
176
     1
 40
0.0
176
     1
 40
1.0
176
     1
 90
        0
176
     1
 62
    18
420
        0
176
     1
 90
       50
176
     1
 90
        3
176
     1
 62
     5
420
      255
176
     1
290
     0
176
     1
 90
       50
176
     1
 90
       50
176
     1
 90
       50
176
     1
290
     0
176
     1
 90
       50
176
     1
 62
   256
176
     0
 40
1.0
176
     0
 90
        2
176
     1
  1
strokes_ogs.tif
176
     1
290
     0
176
     1
 40
1.0
176
     1
 40
1.0
176
     1
  0
VISUALSTYLE
  5
34
102
{ACAD_REACTORS
330
29
102
}
330
29
100
AcDbVisualStyle
  2
Dim
 70
    11
177
     3
291
     1
 70
    58
 90
        2
176
     1
 90
        2
176
     1
 90
        0
176
     1
 90
        0
176
     1
 40
0.6
176
     1
 40
30.0
176
     1
 62
     7
420
 16777215
176
     1
 90
        1
176
     1
 90
        4
176
     1
 62
     7
176
     1
 62
   257
176
     1
 90
        1
176
     1
 90
        1
176
     1
 40
1.0
176
     1
 90
        8
176
     1
 62
     7
176
     1
 40
1.0
176
     1
 90
        1
176
     1
 90
        6
176
     1
 90
        2
176
     1
 62
     7
176
     1
 90
        5
176
     1
 90
        0
176
     1
 90
        0
176
     1
290
     0
176
     1
 90
        1
176
     1
 40
-50.0
176
     1
 90
        0
176
     1
290
     0
176
     1
290
     1
176
     1
290
     1
176
     1
290
     0
176
     1
290
     0
176
     1
290
     0
176
     1
290
     0
176
     1
290
     0
176
     1
290
     0
176
     1
 90
       50
176
     1
 40
0.0
176
     1
 40
1.0
176
     1
 90
        0
176
     1
 62
    18
420
        0
176
     1
 90
       50
176
     1
 90
        3
176
     1
 62
     5
420
      255
176
     1
290
     0
176
     1
 90
       50
176
     1
 90
       50
176
     1
 90
       50
176
     1
290
     0
176
     1
 90
       50
176
     1
 62
   256
176
     0
 40
1.0
176
     0
 90
        2
176
     1
  1
strokes_ogs.tif
176
     1
290
     0
176
     1
 40
1.0
176
     1
 40
1.0
176
     1
  0
VISUALSTYLE
  5
41
102
{ACAD_REACTORS
330
29
102
}
330
29
100
AcDbVisualStyle
  2
EdgeColorOff
 70
    22
177
     3
291
     1
 70
    58
 90
        2
176
     0
 90
        2
176
     0
 90
        0
176
     0
 90
        0
176
     0
 40
0.6
176
     0
 40
30.0
176
     0
 62
     7
420
 16777215
176
     0
 90
        1
176
     0
 90
        4
176
     0
 62
     7
176
     0
 62
   257
176
     0
 90
        1
176
     0
 90
        1
176
     0
 40
1.0
176
     0
 90
        8
176
     2
 62
     7
176
     0
 40
1.0
176
     0
 90
        1
176
     0
 90
        6
176
     0
 90
        2
176
     0
 62
     7
176
     0
 90
        5
176
     0
 90
        0
176
     0
 90
        0
176
     0
290
     0
176
     0
 90
        1
176
     0
 40
0.0
176
     0
 90
        0
176
     0
290
     0
176
     0
290
     1
176
     0
290
     1
176
     0
290
     0
176
     0
290
     0
176
     0
290
     0
176
     0
290
     0
176
     0
290
     0
176
     0
290
     0
176
     0
 90
       50
176
     0
 40
0.0
176
     0
 40
1.0
176
     0
 90
        0
176
     0
 62
    18
420
        0
176
     0
 90
       50
176
     0
 90
        3
176
     0
 62
     5
420
      255
176
     0
290
     0
176
     0
 90
       50
176
     0
 90
       50
176
     0
 90
       50
176
     0
290
     0
176
     0
 90
       50
176
     0
 62
   256
176
     0
 40
1.0
176
     0
 90
        2
176
     0
  1
strokes_ogs.tif
176
     0
290
     0
176
     0
 40
1.0
176
     0
 40
1.0
176
     0
  0
VISUALSTYLE
  5
38
102
{ACAD_REACTORS
330
29
102
}
330
29
100
AcDbVisualStyle
  2
Facepattern
 70
    15
177
     3
291
     1
 70
    58
 90
        2
176
     1
 90
        2
176
     1
 90
        0
176
     1
 90
        0
176
     1
 40
0.6
176
     1
 40
30.0
176
     1
 62
     7
420
 16777215
176
     1
 90
        1
176
     1
 90
        4
176
     1
 62
     7
176
     1
 62
   257
176
     1
 90
        1
176
     1
 90
        1
176
     1
 40
1.0
176
     1
 90
        8
176
     1
 62
     7
176
     1
 40
1.0
176
     1
 90
        1
176
     1
 90
        6
176
     1
 90
        2
176
     1
 62
     7
176
     1
 90
        5
176
     1
 90
        0
176
     1
 90
        0
176
     1
290
     0
176
     1
 90
        1
176
     1
 40
0.0
176
     1
 90
        0
176
     1
290
     0
176
     1
290
     1
176
     1
290
     1
176
     1
290
     0
176
     1
290
     0
176
     1
290
     0
176
     1
290
     0
176
     1
290
     0
176
     1
290
     0
176
     1
 90
       50
176
     1
 40
0.0
176
     1
 40
1.0
176
     1
 90
        0
176
     1
 62
    18
420
        0
176
     1
 90
       50
176
     1
 90
        3
176
     1
 62
     5
420
      255
176
     1
290
     0
176
     1
 90
       50
176
     1
 90
       50
176
     1
 90
       50
176
     1
290
     0
176
     1
 90
       50
176
     1
 62
   256
176
     0
 40
1.0
176
     0
 90
        2
176
     1
  1
strokes_ogs.tif
176
     1
290
     0
176
     1
 40
1.0
176
     1
 40
1.0
176
     1
  0
VISUALSTYLE
  5
2A
102
{ACAD_REACTORS
330
29
102
}
330
29
100
AcDbVisualStyle
  2
Flat
 70
     0
177
     3
291
     1
 70
    58
 90
        2
176
     1
 90
        1
176
     1
 90
        1
176
     1
 90
        2
176
     1
 40
0.6
176
     1
 40
30.0
176
     1
 62
     7
420
 16777215
176
     1
 90
        0
176
     1
 90
        0
176
     1
 62
     7
176
     1
 62
   257
176
     1
 90
        1
176
     1
 90
        1
176
     1
 40
1.0
176
     1
 90
        8
176
     1
 62
     7
176
     1
 40
1.0
176
     1
 90
        1
176
     1
 90
        6
176
     1
 90
        2
176
     1
 62
     7
176
     1
 90
        5
176
     1
 90
        0
176
     1
 90
        0
176
     1
290
     0
176
     1
 90
       13
176
     1
 40
0.0
176
     1
 90
        0
176
     1
290
     0
176
     1
290
     1
176
     1
290
     1
176
     1
290
     0
176
     1
290
     0
176
     1
290
     0
176
     1
290
     0
176
     1
290
     0
176
     1
290
     0
176
     1
 90
       50
176
     1
 40
0.0
176
     1
 40
1.0
176
     1
 90
        0
176
     1
 62
    18
420
        0
176
     1
 90
       50
176
     1
 90
        3
176
     1
 62
     5
420
      255
176
     1
290
     0
176
     1
 90
       50
176
     1
 90
       50
176
     1
 90
       50
176
     1
290
     0
176
     1
 90
       50
176
     1
 62
   256
176
     0
 40
1.0
176
     0
 90
        2
176
     1
  1
strokes_ogs.tif
176
     1
290
     0
176
     1
 40
1.0
176
     1
 40
1.0
176
     1
  0
VISUALSTYLE
  5
2B
102
{ACAD_REACTORS
330
29
102
}
330
29
100
AcDbVisualStyle
  2
FlatWithEdges
 70
     1
177
     3
291
     1
 70
    58
 90
        2
176
     1
 90
        1
176
     1
 90
        1
176
     1
 90
        2
176
     1
 40
0.6
176
     1
 40
30.0
176
     1
 62
     7
420
 16777215
176
     1
 90
        1
176
     1
 90
        0
176
     1
 62
     7
176
     1
 62
   257
176
     1
 90
        1
176
     1
 90
        1
176
     1
 40
1.0
176
     1
 90
        0
176
     1
 62
   257
176
     1
 40
1.0
176
     1
 90
        1
176
     1
 90
        6
176
     1
 90
        2
176
     1
 62
     7
176
     1
 90
        5
176
     1
 90
        0
176
     1
 90
        0
176
     1
290
     0
176
     1
 90
       13
176
     1
 40
0.0
176
     1
 90
        0
176
     1
290
     0
176
     1
290
     1
176
     1
290
     1
176
     1
290
     0
176
     1
290
     0
176
     1
290
     0
176
     1
290
     0
176
     1
290
     0
176
     1
290
     0
176
     1
 90
       50
176
     1
 40
0.0
176
     1
 40
1.0
176
     1
 90
        0
176
     1
 62
    18
420
        0
176
     1
 90
       50
176
     1
 90
        3
176
     1
 62
     5
420
      255
176
     1
290
     0
176
     1
 90
       50
176
     1
 90
       50
176
     1
 90
       50
176
     1
290
     0
176
     1
 90
       50
176
     1
 62
   256
176
     0
 40
1.0
176
     0
 90
        2
176
     1
  1
strokes_ogs.tif
176
     1
290
     0
176
     1
 40
1.0
176
     1
 40
1.0
176
     1
  0
VISUALSTYLE
  5
2C
102
{ACAD_REACTORS
330
29
102
}
330
29
100
AcDbVisualStyle
  2
Gouraud
 70
     2
177
     3
291
     1
 70
    58
 90
        2
176
     1
 90
        2
176
     1
 90
        1
176
     1
 90
        2
176
     1
 40
0.6
176
     1
 40
30.0
176
     1
 62
     7
420
 16777215
176
     1
 90
        0
176
     1
 90
        0
176
     1
 62
     7
176
     1
 62
   257
176
     1
 90
        1
176
     1
 90
        1
176
     1
 40
1.0
176
     1
 90
        0
176
     1
 62
     7
176
     1
 40
1.0
176
     1
 90
        1
176
     1
 90
        6
176
     1
 90
        2
176
     1
 62
     7
176
     1
 90
        5
176
     1
 90
        0
176
     1
 90
        0
176
     1
290
     0
176
     1
 90
       13
176
     1
 40
0.0
176
     1
 90
        0
176
     1
290
     0
176
     1
290
     1
176
     1
290
     1
176
     1
290
     0
176
     1
290
     0
176
     1
290
     0
176
     1
290
     0
176
     1
290
     0
176
     1
290
     0
176
     1
 90
       50
176
     1
 40
0.0
176
     1
 40
1.0
176
     1
 90
        0
176
     1
 62
    18
420
        0
176
     1
 90
       50
176
     1
 90
        3
176
     1
 62
     5
420
      255
176
     1
290
     0
176
     1
 90
       50
176
     1
 90
       50
176
     1
 90
       50
176
     1
290
     0
176
     1
 90
       50
176
     1
 62
   256
176
     0
 40
1.0
176
     0
 90
        2
176
     1
  1
strokes_ogs.tif
176
     1
290
     0
176
     1
 40
1.0
176
     1
 40
1.0
176
     1
  0
VISUALSTYLE
  5
2D
102
{ACAD_REACTORS
330
29
102
}
330
29
100
AcDbVisualStyle
  2
GouraudWithEdges
 70
     3
177
     3
291
     1
 70
    58
 90
        2
176
     1
 90
        2
176
     1
 90
        1
176
     1
 90
        2
176
     1
 40
0.6
176
     1
 40
30.0
176
     1
 62
     7
420
 16777215
176
     1
 90
        1
176
     1
 90
        0
176
     1
 62
     7
176
     1
 62
   257
176
     1
 90
        1
176
     1
 90
        1
176
     1
 40
1.0
176
     1
 90
        0
176
     1
 62
   257
176
     1
 40
1.0
176
     1
 90
        1
176
     1
 90
        6
176
     1
 90
        2
176
     1
 62
     7
176
     1
 90
        5
176
     1
 90
        0
176
     1
 90
        0
176
     1
290
     0
176
     1
 90
       13
176
     1
 40
0.0
176
     1
 90
        0
176
     1
290
     0
176
     1
290
     1
176
     1
290
     1
176
     1
290
     0
176
     1
290
     0
176
     1
290
     0
176
     1
290
     0
176
     1
290
     0
176
     1
290
     0
176
     1
 90
       50
176
     1
 40
0.0
176
     1
 40
1.0
176
     1
 90
        0
176
     1
 62
    18
420
        0
176
     1
 90
       50
176
     1
 90
        3
176
     1
 62
     5
420
      255
176
     1
290
     0
176
     1
 90
       50
176
     1
 90
       50
176
     1
 90
       50
176
     1
290
     0
176
     1
 90
       50
176
     1
 62
   256
176
     0
 40
1.0
176
     0
 90
        2
176
     1
  1
strokes_ogs.tif
176
     1
290
     0
176
     1
 40
1.0
176
     1
 40
1.0
176
     1
  0
VISUALSTYLE
  5
31
102
{ACAD_REACTORS
330
29
102
}
330
29
100
AcDbVisualStyle
  2
Hidden
 70
     6
177
     3
291
     0
 70
    58
 90
        1
176
     1
 90
        2
176
     1
 90
        2
176
     1
 90
        0
176
     1
 40
0.6
176
     1
 40
30.0
176
     1
 62
     7
420
 16777215
176
     1
 90
        2
176
     1
 90
        2
176
     1
 62
     7
176
     1
 62
   257
176
     1
 90
        2
176
     1
 90
        1
176
     1
 40
40.0
176
     1
 90
        0
176
     1
 62
   257
176
     1
 40
1.0
176
     1
 90
        1
176
     1
 90
        6
176
     1
 90
        2
176
     1
 62
     7
176
     1
 90
        3
176
     1
 90
        0
176
     1
 90
        0
176
     1
290
     0
176
     1
 90
        1
176
     1
 40
0.0
176
     1
 90
        0
176
     1
290
     0
176
     1
290
     1
176
     1
290
     1
176
     1
290
     0
176
     1
290
     0
176
     1
290
     0
176
     1
290
     0
176
     1
290
     0
176
     1
290
     0
176
     1
 90
       50
176
     1
 40
0.0
176
     1
 40
1.0
176
     1
 90
        0
176
     1
 62
    18
420
        0
176
     1
 90
       50
176
     1
 90
        3
176
     1
 62
     5
420
      255
176
     1
290
     0
176
     1
 90
       50
176
     1
 90
       50
176
     1
 90
       50
176
     1
290
     0
176
     1
 90
       50
176
     1
 62
   256
176
     0
 40
1.0
176
     0
 90
        2
176
     1
  1
strokes_ogs.tif
176
     1
290
     0
176
     1
 40
1.0
176
     1
 40
1.0
176
     1
  0
VISUALSTYLE
  5
3F
102
{ACAD_REACTORS
330
29
102
}
330
29
100
AcDbVisualStyle
  2
JitterOff
 70
    20
177
     3
291
     1
 70
    58
 90
        2
176
     0
 90
        2
176
     0
 90
        0
176
     0
 90
        0
176
     0
 40
0.6
176
     0
 40
30.0
176
     0
 62
     7
420
 16777215
176
     0
 90
        1
176
     0
 90
        4
176
     0
 62
     7
176
     0
 62
   257
176
     0
 90
        1
176
     0
 90
        1
176
     0
 40
1.0
176
     0
 90
       10
176
     2
 62
     7
176
     0
 40
1.0
176
     0
 90
        1
176
     0
 90
        6
176
     0
 90
        2
176
     0
 62
     7
176
     0
 90
        5
176
     0
 90
        0
176
     0
 90
        0
176
     0
290
     0
176
     0
 90
        1
176
     0
 40
0.0
176
     0
 90
        0
176
     0
290
     0
176
     0
290
     1
176
     0
290
     1
176
     0
290
     0
176
     0
290
     0
176
     0
290
     0
176
     0
290
     0
176
     0
290
     0
176
     0
290
     0
176
     0
 90
       50
176
     0
 40
0.0
176
     0
 40
1.0
176
     0
 90
        0
176
     0
 62
    18
420
        0
176
     0
 90
       50
176
     0
 90
        3
176
     0
 62
     5
420
      255
176
     0
290
     0
176
     0
 90
       50
176
     0
 90
       50
176
     0
 90
       50
176
     0
290
     0
176
     0
 90
       50
176
     0
 62
   256
176
     0
 40
1.0
176
     0
 90
        2
176
     0
  1
strokes_ogs.tif
176
     0
290
     0
176
     0
 40
1.0
176
     0
 40
1.0
176
     0
  0
VISUALSTYLE
  5
37
102
{ACAD_REACTORS
330
29
102
}
330
29
100
AcDbVisualStyle
  2
Linepattern
 70
    14
177
     3
291
     1
 70
    58
 90
        2
176
     1
 90
        2
176
     1
 90
        0
176
     1
 90
        0
176
     1
 40
0.6
176
     1
 40
30.0
176
     1
 62
     7
420
 16777215
176
     1
 90
        1
176
     1
 90
        4
176
     1
 62
     7
176
     1
 62
   257
176
     1
 90
        7
176
     1
 90
        7
176
     1
 40
1.0
176
     1
 90
        8
176
     1
 62
     7
176
     1
 40
1.0
176
     1
 90
        1
176
     1
 90
        6
176
     1
 90
        2
176
     1
 62
     7
176
     1
 90
        5
176
     1
 90
        0
176
     1
 90
        0
176
     1
290
     0
176
     1
 90
        1
176
     1
 40
0.0
176
     1
 90
        0
176
     1
290
     0
176
     1
290
     1
176
     1
290
     1
176
     1
290
     0
176
     1
290
     0
176
     1
290
     0
176
     1
290
     0
176
     1
290
     0
176
     1
290
     0
176
     1
 90
       50
176
     1
 40
0.0
176
     1
 40
1.0
176
     1
 90
        0
176
     1
 62
    18
420
        0
176
     1
 90
       50
176
     1
 90
        3
176
     1
 62
     5
420
      255
176
     1
290
     0
176
     1
 90
       50
176
     1
 90
       50
176
     1
 90
       50
176
     1
290
     0
176
     1
 90
       50
176
     1
 62
   256
176
     0
 40
1.0
176
     0
 90
        2
176
     1
  1
strokes_ogs.tif
176
     1
290
     0
176
     1
 40
1.0
176
     1
 40
1.0
176
     1
  0
VISUALSTYLE
  5
40
102
{ACAD_REACTORS
330
29
102
}
330
29
100
AcDbVisualStyle
  2
OverhangOff
 70
    21
177
     3
291
     1
 70
    58
 90
        2
176
     0
 90
        2
176
     0
 90
        0
176
     0
 90
        0
176
     0
 40
0.6
176
     0
 40
30.0
176
     0
 62
     7
420
 16777215
176
     0
 90
        1
176
     0
 90
        4
176
     0
 62
     7
176
     0
 62
   257
176
     0
 90
        1
176
     0
 90
        1
176
     0
 40
1.0
176
     0
 90
        9
176
     2
 62
     7
176
     0
 40
1.0
176
     0
 90
        1
176
     0
 90
        6
176
     0
 90
        2
176
     0
 62
     7
176
     0
 90
        5
176
     0
 90
        0
176
     0
 90
        0
176
     0
290
     0
176
     0
 90
        1
176
     0
 40
0.0
176
     0
 90
        0
176
     0
290
     0
176
     0
290
     1
176
     0
290
     1
176
     0
290
     0
176
     0
290
     0
176
     0
290
     0
176
     0
290
     0
176
     0
290
     0
176
     0
290
     0
176
     0
 90
       50
176
     0
 40
0.0
176
     0
 40
1.0
176
     0
 90
        0
176
     0
 62
    18
420
        0
176
     0
 90
       50
176
     0
 90
        3
176
     0
 62
     5
420
      255
176
     0
290
     0
176
     0
 90
       50
176
     0
 90
       50
176
     0
 90
       50
176
     0
290
     0
176
     0
 90
       50
176
     0
 62
   256
176
     0
 40
1.0
176
     0
 90
        2
176
     0
  1
strokes_ogs.tif
176
     0
290
     0
176
     0
 40
1.0
176
     0
 40
1.0
176
     0
  0
VISUALSTYLE
  5
33
102
{ACAD_REACTORS
330
29
102
}
330
29
100
AcDbVisualStyle
  2
Realistic
 70
     8
177
     3
291
     0
 70
    58
 90
        2
176
     1
 90
        3
176
     1
 90
        0
176
     1
 90
        2
176
     1
 40
0.6
176
     1
 40
30.0
176
     1
 62
     7
420
 16777215
176
     1
 90
        0
176
     1
 90
        0
176
     1
 62
     7
176
     1
 62
   257
176
     1
 90
        1
176
     1
 90
        1
176
     1
 40
1.0
176
     1
 90
        8
176
     1
 62
   257
176
     1
 40
1.0
176
     1
 90
        1
176
     1
 90
        6
176
     1
 90
        2
176
     1
 62
     7
176
     1
 90
        3
176
     1
 90
        0
176
     1
 90
        0
176
     1
290
     0
176
     1
 90
       13
176
     1
 40
0.0
176
     1
 90
        0
176
     1
290
     0
176
     1
290
     1
176
     1
290
     1
176
     1
290
     0
176
     1
290
     0
176
     1
290
     0
176
     1
290
     0
176
     1
290
     0
176
     1
290
     0
176
     1
 90
       50
176
     1
 40
0.0
176
     1
 40
1.0
176
     1
 90
        0
176
     1
 62
    18
420
        0
176
     1
 90
       50
176
     1
 90
        3
176
     1
 62
     5
420
      255
176
     1
290
     0
176
     1
 90
       50
176
     1
 90
       50
176
     1
 90
       50
176
     1
290
     0
176
     1
 90
       50
176
     1
 62
   256
176
     0
 40
1.0
176
     0
 90
        2
176
     1
  1
strokes_ogs.tif
176
     1
290
     0
176
     1
 40
1.0
176
     1
 40
1.0
176
     1
  0
VISUALSTYLE
  5
3E
102
{ACAD_REACTORS
330
29
102
}
330
29
100
AcDbVisualStyle
  2
Shaded
 70
    27
177
     3
291
     0
 70
    58
 90
        2
176
     1
 90
        2
176
     1
 90
        1
176
     1
 90
        2
176
     1
 40
0.6
176
     1
 40
30.0
176
     1
 62
     7
420
 16777215
176
     1
 90
        0
176
     1
 90
        4
176
     1
 62
     7
176
     1
 62
   257
176
     1
 90
        1
176
     1
 90
        1
176
     1
 40
1.0
176
     1
 90
        8
176
     1
 62
   257
176
     1
 40
1.0
176
     1
 90
        1
176
     1
 90
        6
176
     1
 90
        2
176
     1
 62
     8
420
  7895160
176
     1
 90
        3
176
     1
 90
        0
176
     1
 90
        0
176
     1
290
     0
176
     1
 90
        5
176
     1
 40
0.0
176
     1
 90
        0
176
     1
290
     0
176
     1
290
     1
176
     1
290
     1
176
     1
290
     0
176
     1
290
     0
176
     1
290
     0
176
     1
290
     0
176
     1
290
     0
176
     1
290
     0
176
     1
 90
       50
176
     1
 40
0.0
176
     1
 40
1.0
176
     1
 90
        0
176
     1
 62
    18
420
        0
176
     1
 90
       50
176
     1
 90
        3
176
     1
 62
     5
420
      255
176
     1
290
     0
176
     1
 90
       50
176
     1
 90
       50
176
     1
 90
       50
176
     1
290
     0
176
     1
 90
       50
176
     1
 62
   256
176
     0
 40
1.0
176
     0
 90
        2
176
     1
  1
strokes_ogs.tif
176
     1
290
     0
176
     1
 40
1.0
176
     1
 40
1.0
176
     1
  0
VISUALSTYLE
  5
3D
102
{ACAD_REACTORS
330
29
102
}
330
29
100
AcDbVisualStyle
  2
Shaded with edges
 70
    26
177
     3
291
     0
 70
    58
 90
        2
176
     1
 90
        2
176
     1
 90
        1
176
     1
 90
        2
176
     1
 40
0.6
176
     1
 40
30.0
176
     1
 62
     7
420
 16777215
176
     1
 90
        1
176
     1
 90
        2
176
     1
 62
     7
176
     1
 62
   257
176
     1
 90
        2
176
     1
 90
        1
176
     1
 40
1.0
176
     1
 90
        8
176
     1
 62
   257
176
     1
 40
1.0
176
     1
 90
        1
176
     1
 90
        6
176
     1
 90
        2
176
     1
 62
     7
176
     1
 90
        3
176
     1
 90
        0
176
     1
 90
        0
176
     1
290
     0
176
     1
 90
        5
176
     1
 40
0.0
176
     1
 90
        0
176
     1
290
     0
176
     1
290
     1
176
     1
290
     1
176
     1
290
     0
176
     1
290
     0
176
     1
290
     0
176
     1
290
     0
176
     1
290
     0
176
     1
290
     0
176
     1
 90
       50
176
     1
 40
0.0
176
     1
 40
1.0
176
     1
 90
        0
176
     1
 62
    18
420
        0
176
     1
 90
       50
176
     1
 90
        3
176
     1
 62
     5
420
      255
176
     1
290
     0
176
     1
 90
       50
176
     1
 90
       50
176
     1
 90
       50
176
     1
290
     0
176
     1
 90
       50
176
     1
 62
   256
176
     0
 40
1.0
176
     0
 90
        2
176
     1
  1
strokes_ogs.tif
176
     1
290
     0
176
     1
 40
1.0
176
     1
 40
1.0
176
     1
  0
VISUALSTYLE
  5
3A
102
{ACAD_REACTORS
330
29
102
}
330
29
100
AcDbVisualStyle
  2
Shades of Gray
 70
    23
177
     3
291
     0
 70
    58
 90
        2
176
     1
 90
        2
176
     1
 90
        3
176
     1
 90
        0
176
     1
 40
0.6
176
     1
 40
30.0
176
     1
 62
     7
420
 16777215
176
     1
 90
        2
176
     1
 90
        2
176
     1
 62
     7
176
     1
 62
     7
176
     1
 90
        1
176
     1
 90
        1
176
     1
 40
40.0
176
     1
 90
        8
176
     1
 62
     7
176
     1
 40
1.0
176
     1
 90
        1
176
     1
 90
        6
176
     1
 90
        2
176
     1
 62
     7
176
     1
 90
        3
176
     1
 90
        0
176
     1
 90
        0
176
     1
290
     0
176
     1
 90
        1
176
     1
 40
0.0
176
     1
 90
        0
176
     1
290
     0
176
     1
290
     1
176
     1
290
     1
176
     1
290
     0
176
     1
290
     0
176
     1
290
     0
176
     1
290
     0
176
     1
290
     0
176
     1
290
     0
176
     1
 90
       50
176
     1
 40
0.0
176
     1
 40
1.0
176
     1
 90
        0
176
     1
 62
    18
420
        0
176
     1
 90
       50
176
     1
 90
        3
176
     1
 62
     5
420
      255
176
     1
290
     0
176
     1
 90
       50
176
     1
 90
       50
176
     1
 90
       50
176
     1
290
     0
176
     1
 90
       50
176
     1
 62
   256
176
     0
 40
1.0
176
     0
 90
        2
176
     1
  1
strokes_ogs.tif
176
     1
290
     0
176
     1
 40
1.0
176
     1
 40
1.0
176
     1
  0
VISUALSTYLE
  5
3B
102
{ACAD_REACTORS
330
29
102
}
330
29
100
AcDbVisualStyle
  2
Sketchy
 70
    24
177
     3
291
     0
 70
    58
 90
        1
176
     1
 90
        2
176
     1
 90
        2
176
     1
 90
        0
176
     1
 40
0.6
176
     1
 40
30.0
176
     1
 62
     7
420
 16777215
176
     1
 90
        2
176
     1
 90
        2
176
     1
 62
     7
176
     1
 62
     7
176
     1
 90
        1
176
     1
 90
        1
176
     1
 40
40.0
176
     1
 90
       11
176
     1
 62
     7
176
     1
 40
1.0
176
     1
 90
        1
176
     1
 90
        6
176
     1
 90
        2
176
     1
 62
     7
176
     1
 90
        6
176
     1
 90
        0
176
     1
 90
        0
176
     1
290
     0
176
     1
 90
        1
176
     1
 40
0.0
176
     1
 90
        0
176
     1
290
     0
176
     1
290
     1
176
     1
290
     1
176
     1
290
     0
176
     1
290
     0
176
     1
290
     0
176
     1
290
     0
176
     1
290
     0
176
     1
290
     0
176
     1
 90
       50
176
     1
 40
0.0
176
     1
 40
1.0
176
     1
 90
        0
176
     1
 62
    18
420
        0
176
     1
 90
       50
176
     1
 90
        3
176
     1
 62
     5
420
      255
176
     1
290
     0
176
     1
 90
       50
176
     1
 90
       50
176
     1
 90
       50
176
     1
290
     0
176
     1
 90
       50
176
     1
 62
   256
176
     0
 40
1.0
176
     0
 90
        2
176
     1
  1
strokes_ogs.tif
176
     1
290
     0
176
     1
 40
1.0
176
     1
 40
1.0
176
     1
  0
VISUALSTYLE
  5
36
102
{ACAD_REACTORS
330
29
102
}
330
29
100
AcDbVisualStyle
  2
Thicken
 70
    13
177
     3
291
     1
 70
    58
 90
        2
176
     1
 90
        2
176
     1
 90
        0
176
     1
 90
        0
176
     1
 40
0.6
176
     1
 40
30.0
176
     1
 62
     7
420
 16777215
176
     1
 90
        1
176
     1
 90
        4
176
     1
 62
     7
176
     1
 62
   257
176
     1
 90
        1
176
     1
 90
        1
176
     1
 40
1.0
176
     1
 90
       12
176
     1
 62
     7
176
     1
 40
1.0
176
     1
 90
        1
176
     1
 90
        6
176
     1
 90
        2
176
     1
 62
     7
176
     1
 90
        5
176
     1
 90
        0
176
     1
 90
        0
176
     1
290
     0
176
     1
 90
        1
176
     1
 40
0.0
176
     1
 90
        0
176
     1
290
     0
176
     1
290
     1
176
     1
290
     1
176
     1
290
     0
176
     1
290
     0
176
     1
290
     0
176
     1
290
     0
176
     1
290
     0
176
     1
290
     0
176
     1
 90
       50
176
     1
 40
0.0
176
     1
 40
1.0
176
     1
 90
        0
176
     1
 62
    18
420
        0
176
     1
 90
       50
176
     1
 90
        3
176
     1
 62
     5
420
      255
176
     1
290
     0
176
     1
 90
       50
176
     1
 90
       50
176
     1
 90
       50
176
     1
290
     0
176
     1
 90
       50
176
     1
 62
   256
176
     0
 40
1.0
176
     0
 90
        2
176
     1
  1
strokes_ogs.tif
176
     1
290
     0
176
     1
 40
1.0
176
     1
 40
1.0
176
     1
  0
VISUALSTYLE
  5
30
102
{ACAD_REACTORS
330
29
102
}
330
29
100
AcDbVisualStyle
  2
Wireframe
 70
     5
177
     3
291
     0
 70
    58
 90
        0
176
     1
 90
        2
176
     1
 90
        0
176
     1
 90
        0
176
     1
 40
0.6
176
     1
 40
30.0
176
     1
 62
     7
420
 16777215
176
     1
 90
        1
176
     1
 90
        4
176
     1
 62
     7
176
     1
 62
   257
176
     1
 90
        1
176
     1
 90
        1
176
     1
 40
1.0
176
     1
 90
        0
176
     1
 62
   257
176
     1
 40
1.0
176
     1
 90
        1
176
     1
 90
        6
176
     1
 90
        2
176
     1
 62
     7
176
     1
 90
        3
176
     1
 90
        0
176
     1
 90
        0
176
     1
290
     0
176
     1
 90
        1
176
     1
 40
0.0
176
     1
 90
        0
176
     1
290
     0
176
     1
290
     1
176
     1
290
     1
176
     1
290
     0
176
     1
290
     0
176
     1
290
     0
176
     1
290
     0
176
     1
290
     0
176
     1
290
     0
176
     1
 90
       50
176
     1
 40
0.0
176
     1
 40
1.0
176
     1
 90
        0
176
     1
 62
    18
420
        0
176
     1
 90
       50
176
     1
 90
        3
176
     1
 62
     5
420
      255
176
     1
290
     0
176
     1
 90
       50
176
     1
 90
       50
176
     1
 90
       50
176
     1
290
     0
176
     1
 90
       50
176
     1
 62
   256
176
     0
 40
1.0
176
     0
 90
        2
176
     1
  1
strokes_ogs.tif
176
     1
290
     0
176
     1
 40
1.0
176
     1
 40
1.0
176
     1
  0
VISUALSTYLE
  5
3C
102
{ACAD_REACTORS
330
29
102
}
330
29
100
AcDbVisualStyle
  2
X-Ray
 70
    25
177
     3
291
     0
 70
    58
 90
        2
176
     1
 90
        2
176
     1
 90
        1
176
     1
 90
        1
176
     1
 40
0.5
176
     1
 40
30.0
176
     1
 62
     7
420
 16777215
176
     1
 90
        1
176
     1
 90
        0
176
     1
 62
     7
176
     1
 62
   257
176
     1
 90
        1
176
     1
 90
        1
176
     1
 40
1.0
176
     1
 90
        8
176
     1
 62
     7
176
     1
 40
1.0
176
     1
 90
        1
176
     1
 90
        6
176
     1
 90
        2
176
     1
 62
     7
176
     1
 90
        3
176
     1
 90
        0
176
     1
 90
        0
176
     1
290
     0
176
     1
 90
       13
176
     1
 40
0.0
176
     1
 90
        0
176
     1
290
     0
176
     1
290
     1
176
     1
290
     1
176
     1
290
     0
176
     1
290
     0
176
     1
290
     0
176
     1
290
     0
176
     1
290
     0
176
     1
290
     0
176
     1
 90
       50
176
     1
 40
0.0
176
     1
 40
1.0
176
     1
 90
        0
176
     1
 62
    18
420
        0
176
     1
 90
       50
176
     1
 90
        3
176
     1
 62
     5
420
      255
176
     1
290
     0
176
     1
 90
       50
176
     1
 90
       50
176
     1
 90
       50
176
     1
290
     0
176
     1
 90
       50
176
     1
 62
   256
176
     0
 40
1.0
176
     0
 90
        2
176
     1
  1
strokes_ogs.tif
176
     1
290
     0
176
     1
 40
1.0
176
     1
 40
1.0
176
     1
  0
DICTIONARYVAR
  5
A6
102
{ACAD_REACTORS
330
A1
102
}
330
A1
100
DictionaryVariables
280
     0
  1
1:1
  0
DICTIONARYVAR
  5
A3
102
{ACAD_REACTORS
330
A1
102
}
330
A1
100
DictionaryVariables
280
     0
  1
STANDARD
  0
DICTIONARYVAR
  5
A2
102
{ACAD_REACTORS
330
A1
102
}
330
A1
100
DictionaryVariables
280
     0
  1
STANDARD
  0
DICTIONARYVAR
  5
A4
102
{ACAD_REACTORS
330
A1
102
}
330
A1
100
DictionaryVariables
280
     0
  1
Imperial24
  0
DICTIONARYVAR
  5
A5
102
{ACAD_REACTORS
330
A1
102
}
330
A1
100
DictionaryVariables
280
     0
  1
Imperial24
  0
DICTIONARY
  5
1A
330
19
100
AcDbDictionary
280
     1
281
     1
  3
BUMPTILE
360
1C
  3
DIFFUSETILE
360
1B
  3
OPACITYTILE
360
1F
  3
REFLECTIONTILE
360
1E
  3
REFRACTIONTILE
360
20
  3
SPECULARTILE
360
1D
  0
DICTIONARY
  5
12
330
11
100
AcDbDictionary
280
     1
281
     1
  3
BUMPTILE
360
14
  3
DIFFUSETILE
360
13
  3
OPACITYTILE
360
17
  3
REFLECTIONTILE
360
16
  3
REFRACTIONTILE
360
18
  3
SPECULARTILE
360
15
  0
DICTIONARY
  5
22
330
21
100
AcDbDictionary
280
     1
281
     1
  3
BUMPTILE
360
24
  3
DIFFUSETILE
360
23
  3
OPACITYTILE
360
27
  3
REFLECTIONTILE
360
26
  3
REFRACTIONTILE
360
28
  3
SPECULARTILE
360
25
  0
DICTIONARY
  5
A7
330
65
100
AcDbDictionary
280
     1
281
     1
  3
ACAD_ROUNDTRIP_2008_TABLESTYLE_CELLSTYLEMAP
360
A8
  0
XRECORD
  5
1C
102
{ACAD_REACTORS
330
1A
102
}
330
1A
100
AcDbXrecord
280
     1
270
     1
271
     1
  0
XRECORD
  5
1B
102
{ACAD_REACTORS
330
1A
102
}
330
1A
100
AcDbXrecord
280
     1
270
     1
271
     1
  0
XRECORD
  5
1F
102
{ACAD_REACTORS
330
1A
102
}
330
1A
100
AcDbXrecord
280
     1
270
     1
271
     1
  0
XRECORD
  5
1E
102
{ACAD_REACTORS
330
1A
102
}
330
1A
100
AcDbXrecord
280
     1
270
     1
271
     1
  0
XRECORD
  5
20
102
{ACAD_REACTORS
330
1A
102
}
330
1A
100
AcDbXrecord
280
     1
270
     1
271
     1
  0
XRECORD
  5
1D
102
{ACAD_REACTORS
330
1A
102
}
330
1A
100
AcDbXrecord
280
     1
270
     1
271
     1
  0
XRECORD
  5
14
102
{ACAD_REACTORS
330
12
102
}
330
12
100
AcDbXrecord
280
     1
270
     1
271
     1
  0
XRECORD
  5
13
102
{ACAD_REACTORS
330
12
102
}
330
12
100
AcDbXrecord
280
     1
270
     1
271
     1
  0
XRECORD
  5
17
102
{ACAD_REACTORS
330
12
102
}
330
12
100
AcDbXrecord
280
     1
270
     1
271
     1
  0
XRECORD
  5
16
102
{ACAD_REACTORS
330
12
102
}
330
12
100
AcDbXrecord
280
     1
270
     1
271
     1
  0
XRECORD
  5
18
102
{ACAD_REACTORS
330
12
102
}
330
12
100
AcDbXrecord
280
     1
270
     1
271
     1
  0
XRECORD
  5
15
102
{ACAD_REACTORS
330
12
102
}
330
12
100
AcDbXrecord
280
     1
270
     1
271
     1
  0
XRECORD
  5
24
102
{ACAD_REACTORS
330
22
102
}
330
22
100
AcDbXrecord
280
     1
270
     1
271
     1
  0
XRECORD
  5
23
102
{ACAD_REACTORS
330
22
102
}
330
22
100
AcDbXrecord
280
     1
270
     1
271
     1
  0
XRECORD
  5
27
102
{ACAD_REACTORS
330
22
102
}
330
22
100
AcDbXrecord
280
     1
270
     1
271
     1
  0
XRECORD
  5
26
102
{ACAD_REACTORS
330
22
102
}
330
22
100
AcDbXrecord
280
     1
270
     1
271
     1
  0
XRECORD
  5
28
102
{ACAD_REACTORS
330
22
102
}
330
22
100
AcDbXrecord
280
     1
270
     1
271
     1
  0
XRECORD
  5
25
102
{ACAD_REACTORS
330
22
102
}
330
22
100
AcDbXrecord
280
     1
270
     1
271
     1
  0
CELLSTYLEMAP
  5
A8
102
{ACAD_REACTORS
330
A7
102
}
330
A7
100
AcDbCellStyleMap
 90
        3
300
CELLSTYLE
  1
TABLEFORMAT_BEGIN
 90
        5
170
     1
 91
        0
 92
    32768
 62
   257
 93
        1
300
CONTENTFORMAT
  1
CONTENTFORMAT_BEGIN
 90
        0
 91
        0
 92
      512
 93
        0
300

 40
0.0
140
1.0
 94
        5
 62
     0
340
55
144
0.25
309
CONTENTFORMAT_END
171
     0
 94
        0
309
TABLEFORMAT_END
  1
CELLSTYLE_BEGIN
 90
        1
 91
        1
300
_TITLE
309
CELLSTYLE_END
300
CELLSTYLE
  1
TABLEFORMAT_BEGIN
 90
        5
170
     1
 91
        0
 92
        0
 62
   257
 93
        1
300
CONTENTFORMAT
  1
CONTENTFORMAT_BEGIN
 90
        0
 91
        0
 92
      512
 93
        0
300

 40
0.0
140
1.0
 94
        5
 62
     0
340
55
144
0.18
309
CONTENTFORMAT_END
171
     0
 94
        0
309
TABLEFORMAT_END
  1
CELLSTYLE_BEGIN
 90
        2
 91
        1
300
_HEADER
309
CELLSTYLE_END
300
CELLSTYLE
  1
TABLEFORMAT_BEGIN
 90
        5
170
     1
 91
        0
 92
        0
 62
   257
 93
        1
300
CONTENTFORMAT
  1
CONTENTFORMAT_BEGIN
 90
        0
 91
        0
 92
      512
 93
        0
300

 40
0.0
140
1.0
 94
        2
 62
     0
340
55
144
0.18
309
CONTENTFORMAT_END
171
     0
 94
        0
309
TABLEFORMAT_END
  1
CELLSTYLE_BEGIN
 90
        3
 91
        2
300
_DATA
309
CELLSTYLE_END
  0
ENDSEC
  0
EOF
